<svg width="96" height="96" viewBox="0 0 96 96" fill="none" xmlns="http://www.w3.org/2000/svg">
<g id="code" clip-path="url(#clip0_11_2)">
<g id="Group 54">
<path id="Vector" d="M58.1394 16.7536C54.1213 6.87821 44.4011 -0.0694142 33.0658 0.000523258C18.6049 0.0895858 6.71513 11.7538 6.36431 26.2104C6.19125 33.3429 8.79769 39.8643 13.1769 44.7697C16.668 48.6802 18.42 53.8307 18.2434 59.07C18.2199 59.7663 18.2164 60.4678 18.2336 61.1737C18.6956 80.1862 34.9374 96.0114 53.9556 96C73.668 95.9882 89.6443 80.0043 89.6443 60.2893C89.6443 45.8379 81.0598 33.3928 68.7124 27.7725C63.9 25.5819 60.1322 21.6511 58.1394 16.7536Z" fill="url(#paint0_linear_11_2)"/>
<path id="Vector_2" opacity="0.1" d="M88.0218 56.2397H74.5601C74.9557 55.1831 75.2928 54.0981 75.5652 52.9875L82.823 50.9205C83.4406 50.7446 83.8664 50.1804 83.8664 49.5382V42.5242C83.8664 41.8821 83.4404 41.3179 82.823 41.142L75.5652 39.075C74.8544 36.1779 73.7116 33.4507 72.206 30.9673L75.8769 24.3727C76.1892 23.8117 76.0914 23.1116 75.6374 22.6575L70.6779 17.6979C70.2237 17.2438 69.5236 17.1461 68.9626 17.4585L62.3681 21.1294C59.8846 19.6237 57.1574 18.4809 54.2604 17.7701L52.1932 10.5124C52.0173 9.89475 51.4531 9.46893 50.8109 9.46893H43.7971C43.1549 9.46893 42.5907 9.89493 42.4149 10.5124L40.3477 17.7701C37.6634 18.4286 35.1277 19.4623 32.7937 20.8078V11.4735C32.7937 10.4355 31.9522 9.594 30.9142 9.594H7.97862C6.94062 9.594 6.09912 10.4355 6.09912 11.4735V29.7131C6.09912 30.7511 6.94062 31.5926 7.97862 31.5926H22.0387C20.7134 33.9067 19.6944 36.4183 19.0426 39.075L11.7849 41.142C11.1672 41.3179 10.7414 41.8821 10.7414 42.5242V49.5382C10.7414 50.1804 11.1674 50.7446 11.7849 50.9205L19.0426 52.9875C19.7534 55.8846 20.8962 58.6117 22.4019 61.0952L18.731 67.6897C18.4186 68.2507 18.5165 68.9509 18.9704 69.405L23.93 74.3645C24.3841 74.8187 25.0842 74.9164 25.6452 74.604L32.2398 70.9331C34.7232 72.4387 37.4504 73.5816 40.3475 74.2924L42.4147 81.5501C42.5906 82.1677 43.1547 82.5936 43.7969 82.5936H50.8107C51.4529 82.5936 52.0171 82.1675 52.193 81.5501L54.2602 74.2924C55.3953 74.0139 56.5032 73.6669 57.5817 73.2598V76.3586C57.5817 77.3966 58.4232 78.2381 59.4612 78.2381H88.0216C89.0596 78.2381 89.9011 77.3966 89.9011 76.3586V58.119C89.9013 57.0812 89.0598 56.2397 88.0218 56.2397Z" fill="#0A2540"/>
<path id="Vector_3" d="M83.8667 53.4757V46.4617C83.8667 45.8196 83.4407 45.2554 82.8233 45.0795L75.5653 43.0125C74.8545 40.1154 73.7117 37.3882 72.2061 34.9048L75.877 28.3102C76.1893 27.7492 76.0914 27.0491 75.6375 26.595L70.6779 21.6354C70.2238 21.1813 69.5237 21.0836 68.9627 21.396L62.3681 25.0669C59.8847 23.5612 57.1575 22.4184 54.2605 21.7076L52.1933 14.4499C52.0174 13.8322 51.4532 13.4064 50.811 13.4064H43.7972C43.155 13.4064 42.5908 13.8324 42.415 14.4499L40.3478 21.7076C37.4507 22.4184 34.7235 23.5612 32.2401 25.0669L25.6455 21.396C25.0845 21.0836 24.3844 21.1815 23.9303 21.6354L18.9707 26.595C18.5166 27.0491 18.4189 27.7492 18.7313 28.3102L22.4021 34.9048C20.8965 37.3882 19.7537 40.1154 19.0429 43.0125L11.7851 45.0795C11.1675 45.2554 10.7417 45.8196 10.7417 46.4617V53.4757C10.7417 54.1179 11.1677 54.6821 11.7851 54.858L19.0427 56.925C19.7535 59.8221 20.8963 62.5492 22.4019 65.0327L18.7311 71.6272C18.4187 72.1882 18.5166 72.8884 18.9705 73.3425L23.9301 78.302C24.3842 78.7562 25.0843 78.8539 25.6453 78.5415L32.2399 74.8706C34.7233 76.3762 37.4505 77.5191 40.3476 78.2299L42.4148 85.4876C42.5906 86.1052 43.1548 86.531 43.797 86.531H50.8108C51.453 86.531 52.0172 86.105 52.1931 85.4876L54.2603 78.2299C57.1573 77.5191 59.8845 76.3762 62.368 74.8706L68.9625 78.5415C69.5235 78.8539 70.2236 78.756 70.6778 78.302L75.6373 73.3425C76.0915 72.8884 76.1891 72.1882 75.8768 71.6272L72.2059 65.0327C73.7115 62.5492 74.8543 59.8221 75.5651 56.925L82.8229 54.8578C83.4407 54.6821 83.8667 54.1177 83.8667 53.4757Z" fill="white"/>
<path id="Vector_4" d="M59.7545 62.4294C66.6364 55.5474 66.6364 44.3896 59.7545 37.5076C52.8725 30.6257 41.7147 30.6257 34.8327 37.5076C27.9508 44.3896 27.9508 55.5474 34.8327 62.4294C41.7147 69.3113 52.8725 69.3113 59.7545 62.4294Z" fill="#635BFF"/>
<path id="Vector_5" d="M47.3042 64.4789C55.318 64.4789 61.8144 57.9825 61.8144 49.9687C61.8144 41.9549 55.318 35.4584 47.3042 35.4584C39.2904 35.4584 32.7939 41.9549 32.7939 49.9687C32.7939 57.9825 39.2904 64.4789 47.3042 64.4789Z" fill="white"/>
<path id="Vector_6" d="M47.3039 72.8437C34.6906 72.8437 24.429 62.5821 24.429 49.9687C24.429 49.4511 24.8488 49.0312 25.3665 49.0312C25.8841 49.0312 26.304 49.4511 26.304 49.9687C26.304 61.5482 35.7245 70.9687 47.3039 70.9687C47.8216 70.9687 48.2414 71.3886 48.2414 71.9062C48.2416 72.4239 47.8216 72.8437 47.3039 72.8437Z" fill="#0A2540"/>
<path id="Vector_7" d="M69.2417 50.9062C68.724 50.9062 68.3042 50.4864 68.3042 49.9688C68.3042 38.3893 58.8836 28.9688 47.3042 28.9688C46.7865 28.9688 46.3667 28.5489 46.3667 28.0312C46.3667 27.5136 46.7865 27.0938 47.3042 27.0938C59.9175 27.0938 70.1792 37.3554 70.1792 49.9688C70.1792 50.4864 69.7594 50.9062 69.2417 50.9062Z" fill="#0A2540"/>
<path id="Vector_8" d="M42.9201 53.1628C42.6803 53.1628 42.4401 53.0714 42.2573 52.8884L40.0007 50.6318C39.6345 50.2656 39.6345 49.672 40.0007 49.306L42.2573 47.0494C42.6231 46.6834 43.2171 46.6834 43.5829 47.0494C43.9491 47.4156 43.9491 48.0092 43.5829 48.3752L41.9893 49.969L43.5829 51.5627C43.9491 51.9289 43.9491 52.5225 43.5829 52.8885C43.3999 53.0713 43.1601 53.1628 42.9201 53.1628Z" fill="#0A2540"/>
<path id="Vector_9" d="M51.6879 53.1627C51.4481 53.1627 51.2079 53.0712 51.0251 52.8882C50.6589 52.522 50.6589 51.9284 51.0251 51.5624L52.6187 49.9687L51.0251 48.3749C50.6589 48.0087 50.6589 47.4151 51.0251 47.0491C51.3909 46.6831 51.9849 46.6831 52.3508 47.0491L54.6073 49.3057C54.9735 49.6718 54.9735 50.2655 54.6073 50.6315L52.3508 52.888C52.1679 53.0712 51.9279 53.1627 51.6879 53.1627Z" fill="#0A2540"/>
<path id="Vector_10" d="M46.0288 53.1629C45.8726 53.1629 45.7144 53.1239 45.5689 53.0416C45.1179 52.787 44.9587 52.2151 45.2134 51.7642L47.7619 47.2511C48.0163 46.8003 48.5884 46.6411 49.0391 46.8956C49.49 47.1502 49.6492 47.7221 49.3946 48.1728L46.8461 52.6859C46.6736 52.9914 46.356 53.1629 46.0288 53.1629Z" fill="#0A2540"/>
<path id="Vector_11" d="M30.914 35.5301H7.97862C6.94062 35.5301 6.09912 34.6886 6.09912 33.6506V15.4109C6.09912 14.3729 6.94062 13.5314 7.97862 13.5314H30.914C31.952 13.5314 32.7935 14.3729 32.7935 15.4109V33.6506C32.7935 34.6886 31.9522 35.5301 30.914 35.5301Z" fill="white"/>
<path id="Vector_12" d="M30.914 13.5314H24.5088V35.5301H30.914C31.952 35.5301 32.7935 34.6886 32.7935 33.6506V15.4109C32.7935 14.3729 31.952 13.5314 30.914 13.5314Z" fill="white"/>
<path id="Vector_13" d="M32.7939 19.6711V15.4109C32.7939 14.3729 31.9524 13.5314 30.9144 13.5314H7.97862C6.94062 13.5314 6.09912 14.3729 6.09912 15.4109V19.6711H32.7939Z" fill="#635BFF"/>
<path id="Vector_14" d="M20.7321 31.1416H11.4105C10.8915 31.1416 10.4709 30.7208 10.4709 30.202C10.4709 29.6832 10.8915 29.2625 11.4105 29.2625H20.7323C21.2513 29.2625 21.6718 29.6832 21.6718 30.202C21.6716 30.721 21.2511 31.1416 20.7321 31.1416Z" fill="#0A2540"/>
<path id="Vector_15" d="M15.6576 27.2409H11.4105C10.8915 27.2409 10.4709 26.8202 10.4709 26.3014C10.4709 25.7826 10.8915 25.3618 11.4105 25.3618H15.6576C16.1766 25.3618 16.5971 25.7826 16.5971 26.3014C16.5971 26.8202 16.1766 27.2409 15.6576 27.2409Z" fill="#0A2540"/>
<path id="Vector_16" d="M88.0219 82.1758H59.4615C58.4235 82.1758 57.582 81.3343 57.582 80.2963V62.0566C57.582 61.0186 58.4235 60.1771 59.4615 60.1771H88.0219C89.0599 60.1771 89.9014 61.0186 89.9014 62.0566V80.2963C89.9014 81.3343 89.0599 82.1758 88.0219 82.1758Z" fill="white"/>
<path id="Vector_17" d="M89.9014 66.3168V62.0566C89.9014 61.0186 89.0599 60.1771 88.0219 60.1771H59.4615C58.4235 60.1771 57.582 61.0186 57.582 62.0566V66.3168H89.9014Z" fill="#635BFF"/>
<path id="Vector_18" d="M88.0216 59.2397H75.8791C76.0464 58.7235 76.2014 58.2026 76.3402 57.6791L83.0797 55.7597C84.0948 55.4706 84.8039 54.5314 84.8039 53.4757V46.4619C84.8039 45.4063 84.0948 44.4671 83.0797 44.178L76.3402 42.2586C75.656 39.6744 74.6309 37.2006 73.2871 34.8898L76.6959 28.7662C77.2092 27.8439 77.0465 26.6786 76.3002 25.9322L71.3407 20.9726C70.5942 20.226 69.4287 20.0634 68.5064 20.5768L62.3829 23.9856C60.0723 22.6417 57.5984 21.6169 55.0141 20.9325L53.0947 14.193C52.8056 13.1779 51.8662 12.4689 50.8107 12.4689H43.7969C42.7413 12.4689 41.8021 13.1781 41.513 14.1932L39.5936 20.9325C37.5654 21.4697 35.6007 22.2212 33.731 23.1694V15.411C33.731 13.8577 32.4672 12.594 30.914 12.594H7.97881C6.42556 12.594 5.16181 13.8577 5.16181 15.411V19.6712C5.16181 20.1889 5.58162 20.6087 6.09931 20.6087H31.8562V33.6504C31.8562 34.17 31.4336 34.5924 30.9142 34.5924H7.97862C7.45925 34.5924 7.03662 34.1698 7.03662 33.6504V24.8349C7.03662 24.3172 6.61681 23.8974 6.09912 23.8974C5.58143 23.8974 5.16162 24.3172 5.16162 24.8349V33.6504C5.16162 35.2039 6.42537 36.4674 7.97862 36.4674H20.4693C19.5382 38.3158 18.7979 40.2559 18.2675 42.2584L11.5282 44.1778C10.5129 44.4669 9.80393 45.4061 9.80393 46.4617V53.4756C9.80393 54.5312 10.5131 55.4704 11.5282 55.7595L18.2675 57.6789C18.9519 60.2632 19.9769 62.7373 21.3206 65.0477L17.912 71.1712C17.3986 72.0935 17.5612 73.259 18.3076 74.0053L23.2672 78.9649C24.0136 79.7113 25.1789 79.874 26.1014 79.3605L32.225 75.9517C34.5356 77.2955 37.0096 78.3204 39.5937 79.0048L41.5132 85.7441C41.8023 86.7592 42.7415 87.4684 43.7971 87.4684H50.8109C51.8664 87.4684 52.8056 86.7594 53.0949 85.7441L55.0143 79.0046C55.5614 78.8597 56.1055 78.6967 56.6442 78.5209V80.2957C56.6442 81.849 57.908 83.1127 59.4612 83.1127H88.0216C89.5751 83.1127 90.8386 81.849 90.8386 80.2957V62.0561C90.8388 60.5034 89.5751 59.2397 88.0216 59.2397ZM7.03662 18.7337V15.411C7.03662 14.8916 7.45925 14.469 7.97862 14.469H30.914C31.4334 14.469 31.856 14.8916 31.856 15.411V18.7337H7.03662ZM54.0367 77.3195C53.7095 77.3998 53.4507 77.6494 53.3585 77.9732L51.2915 85.2309C51.2306 85.4447 51.0329 85.5939 50.8109 85.5939H43.7971C43.5749 85.5939 43.3773 85.4447 43.3166 85.2311L41.2496 77.9734C41.1573 77.6494 40.8984 77.4 40.5714 77.3197C37.8029 76.6404 35.1635 75.5469 32.7264 74.0694C32.4382 73.8949 32.0787 73.8881 31.7844 74.052L25.1898 77.7229C24.9957 77.831 24.7505 77.7967 24.5934 77.6396L19.6338 72.6799C19.4769 72.5229 19.4426 72.2777 19.5506 72.0836L23.2214 65.489C23.3853 65.1949 23.3786 64.8352 23.204 64.5471C21.7265 62.1101 20.633 59.4707 19.9537 56.7021C19.8734 56.3749 19.6239 56.1161 19.3001 56.0239L12.0423 53.9569C11.8287 53.8959 11.6795 53.6985 11.6795 53.4763V46.4625C11.6795 46.2403 11.8286 46.0427 12.0423 45.9819L19.3001 43.9149C19.6241 43.8227 19.8734 43.5637 19.9537 43.2367C20.5332 40.8748 21.4209 38.6002 22.5873 36.4684H30.9146C32.4678 36.4684 33.7316 35.2046 33.7316 33.6514V25.2898C35.8835 24.1041 38.1837 23.2046 40.5714 22.6189C40.8986 22.5386 41.1573 22.2891 41.2496 21.9652L43.3166 14.7075C43.3775 14.4939 43.5751 14.3447 43.7971 14.3447H50.8109C51.0331 14.3447 51.2307 14.4939 51.2915 14.7075L53.3585 21.9652C53.4507 22.2892 53.7097 22.5386 54.0367 22.6189C56.8051 23.2982 59.4446 24.3919 61.8817 25.8692C62.1701 26.0439 62.5295 26.0507 62.8237 25.8866L69.4182 22.2157C69.6123 22.1077 69.8576 22.1419 70.0147 22.299L74.9742 27.2586C75.1314 27.4155 75.1657 27.6609 75.0575 27.855L71.3866 34.4496C71.2227 34.7439 71.2295 35.1034 71.4041 35.3916C72.8816 37.8289 73.9752 40.4681 74.6544 43.2366C74.7346 43.5637 74.9842 43.8225 75.308 43.9147L82.5657 45.9817C82.7793 46.0427 82.9286 46.2403 82.9286 46.4623V53.4761C82.9286 53.6983 82.7793 53.8959 82.5657 53.9567L75.308 56.0237C74.984 56.1159 74.7344 56.3749 74.6544 56.7019C74.4447 57.5559 74.1901 58.407 73.9002 59.2399H70.073C69.5553 59.2399 69.1355 59.6597 69.1355 60.1774C69.1355 60.6951 69.5553 61.1149 70.073 61.1149H88.0212C88.5408 61.1149 88.9632 61.5375 88.9632 62.0569V65.3796H58.5189V62.0569C58.5189 61.5375 58.9415 61.1149 59.4609 61.1149H64.9092C65.4269 61.1149 65.8467 60.6951 65.8467 60.1774C65.8467 59.6597 65.4269 59.2399 64.9092 59.2399H59.4609C57.9076 59.2399 56.6439 60.5036 56.6439 62.0569V76.5412C55.7896 76.841 54.9147 77.1039 54.0367 77.3195ZM88.0216 81.2383H59.4612C58.9419 81.2383 58.5192 80.8157 58.5192 80.2963V67.2544H88.9636V80.2963C88.9638 80.8157 88.5412 81.2383 88.0216 81.2383Z" fill="#0A2540"/>
<path id="Vector_19" d="M64.3345 77.0607C64.306 77.0607 64.2773 77.0594 64.2486 77.0567C63.8758 77.0226 63.5592 76.77 63.4429 76.4142L62.1567 72.4748C61.996 71.9826 62.2647 71.4533 62.7568 71.2926C63.249 71.1319 63.7783 71.4006 63.939 71.8928L64.5503 73.7646L64.8928 73.1352C65.0569 72.8337 65.3728 72.6458 65.7163 72.6458C66.0598 72.6458 66.3758 72.8335 66.5398 73.1352L66.8824 73.7646L67.4937 71.8928C67.6542 71.4006 68.1835 71.1317 68.6758 71.2926C69.168 71.4533 69.4369 71.9826 69.276 72.4748L67.9898 76.4142C67.8735 76.77 67.5568 77.0226 67.1843 77.0567C66.8119 77.0914 66.4542 76.9002 66.2753 76.5713L65.7165 75.5445L65.1578 76.5713C64.9926 76.8747 64.6755 77.0607 64.3345 77.0607Z" fill="#0A2540"/>
<path id="Vector_20" d="M72.3596 77.0607C72.3311 77.0607 72.3024 77.0594 72.2737 77.0567C71.901 77.0226 71.5843 76.77 71.4681 76.4142L70.1818 72.4748C70.0211 71.9826 70.2898 71.4533 70.782 71.2926C71.2742 71.1319 71.8035 71.4006 71.9642 71.8928L72.5754 73.7646L72.918 73.1352C73.0821 72.8337 73.398 72.6458 73.7415 72.6458C74.085 72.6458 74.4009 72.8335 74.565 73.1352L74.9076 73.7646L75.5188 71.8928C75.6793 71.4006 76.2086 71.1317 76.701 71.2926C77.1932 71.4533 77.4621 71.9826 77.3012 72.4748L76.0149 76.4142C75.8987 76.77 75.582 77.0226 75.2094 77.0567C74.8367 77.0914 74.4791 76.9002 74.3004 76.5713L73.7417 75.5445L73.1829 76.5713C73.0176 76.8747 72.7005 77.0607 72.3596 77.0607Z" fill="#0A2540"/>
<path id="Vector_21" d="M83.1486 77.0607C82.8077 77.0607 82.4904 76.8747 82.3254 76.5713L81.7667 75.5445L81.2079 76.5713C81.0291 76.9 80.6724 77.0912 80.2989 77.0567C79.9262 77.0226 79.6095 76.77 79.4934 76.4142L78.2072 72.4748C78.0465 71.9826 78.3152 71.4533 78.8074 71.2926C79.2996 71.1319 79.8289 71.4006 79.9896 71.8928L80.6008 73.7646L80.9434 73.1352C81.1074 72.8337 81.4234 72.6458 81.7669 72.6458C82.1104 72.6458 82.4263 72.8335 82.5904 73.1352L82.9329 73.7646L83.5442 71.8928C83.7047 71.4006 84.234 71.1317 84.7264 71.2926C85.2186 71.4533 85.4874 71.9826 85.3266 72.4748L84.0403 76.4142C83.9241 76.77 83.6074 77.0226 83.2348 77.0567C83.2058 77.0593 83.1771 77.0607 83.1486 77.0607Z" fill="#0A2540"/>
</g>
<g id="bubles">
<path id="buble" d="M83.0561 37.6438C82.8161 37.6438 82.5763 37.5523 82.3931 37.3693L80.3318 35.3079C79.9656 34.9417 79.9656 34.3481 80.3318 33.9821L82.3931 31.9207C82.7593 31.5547 83.3528 31.5547 83.719 31.9207L85.7803 33.9821C86.1465 34.3483 86.1465 34.9419 85.7803 35.3079L83.7192 37.3691C83.536 37.5521 83.2961 37.6438 83.0561 37.6438ZM82.3206 34.6447L83.0561 35.3803L83.7917 34.6447L83.0561 33.9092L82.3206 34.6447Z" fill="#635BFF"/>
<path id="buble_2" d="M66.996 17.4613C66.4783 17.4613 66.0585 17.0415 66.0585 16.5238C66.0585 15.9009 65.5519 15.3943 64.9292 15.3943C64.4115 15.3943 63.9917 14.9745 63.9917 14.4568C63.9917 13.9391 64.4115 13.5193 64.9292 13.5193C65.5519 13.5193 66.0585 13.0126 66.0585 12.39C66.0585 11.8723 66.4783 11.4525 66.996 11.4525C67.5137 11.4525 67.9335 11.8723 67.9335 12.39C67.9335 13.0126 68.4401 13.5193 69.0628 13.5193C69.5805 13.5193 70.0003 13.9391 70.0003 14.4568C70.0003 14.9745 69.5805 15.3943 69.0628 15.3943C68.4401 15.3943 67.9335 15.9009 67.9335 16.5238C67.9335 17.0416 67.5137 17.4613 66.996 17.4613Z" fill="#635BFF"/>
<path id="buble_3" d="M11.8664 66.2515C11.3487 66.2515 10.9289 65.8317 10.9289 65.314C10.9289 64.6913 10.4222 64.1847 9.79956 64.1847C9.28187 64.1847 8.86206 63.7649 8.86206 63.2472C8.86206 62.7295 9.28187 62.3097 9.79956 62.3097C10.4222 62.3097 10.9289 61.803 10.9289 61.1804C10.9289 60.6627 11.3487 60.2429 11.8664 60.2429C12.3841 60.2429 12.8039 60.6627 12.8039 61.1804C12.8039 61.803 13.3105 62.3097 13.9332 62.3097C14.4509 62.3097 14.8707 62.7295 14.8707 63.2472C14.8707 63.7649 14.4509 64.1847 13.9332 64.1847C13.3105 64.1847 12.8039 64.6913 12.8039 65.314C12.8039 65.8317 12.3841 66.2515 11.8664 66.2515Z" fill="#635BFF"/>
<path id="buble_4" d="M10.4711 76.3222C9.95337 76.3222 9.53355 75.9023 9.53355 75.3847C9.53355 74.762 9.02693 74.2553 8.40405 74.2553C7.88637 74.2553 7.46655 73.8355 7.46655 73.3178C7.46655 72.8002 7.88637 72.3803 8.40405 72.3803C9.02693 72.3803 9.53355 71.8737 9.53355 71.251C9.53355 70.7333 9.95337 70.3135 10.4711 70.3135C10.9887 70.3135 11.4086 70.7333 11.4086 71.251C11.4086 71.8737 11.9152 72.3803 12.5379 72.3803C13.0556 72.3803 13.4754 72.8002 13.4754 73.3178C13.4754 73.8355 13.0556 74.2553 12.5379 74.2553C11.9152 74.2553 11.4086 74.762 11.4086 75.3847C11.4086 75.9023 10.9887 76.3222 10.4711 76.3222Z" fill="#635BFF"/>
</g>
</g>
<defs>
<linearGradient id="paint0_linear_11_2" x1="11.1684" y1="5.20459" x2="77.4144" y2="90.3123" gradientUnits="userSpaceOnUse">
<stop stop-color="#00D4FF" stop-opacity="0.2"/>
<stop offset="1" stop-color="#635BFF" stop-opacity="0.2"/>
</linearGradient>
<clipPath id="clip0_11_2">
<rect width="96" height="96" fill="white"/>
</clipPath>
</defs>
</svg>
