<svg width="20" height="20" fill="none" xmlns="http://www.w3.org/2000/svg"><path d="M11.67 10a1.67 1.67 0 1 1-3.34 0 1.67 1.67 0 0 1 3.34 0ZM20 10a10 10 0 1 1-20 0 10 10 0 0 1 20 0ZM7.67 16.26a6.69 6.69 0 0 1-3.92-3.93l-.85.1a7.51 7.51 0 0 0 4.67 4.68l.1-.85Zm.22-1.74a5.03 5.03 0 0 1-2.42-2.4l-.86.1a5.85 5.85 0 0 0 3.17 3.17l.1-.87ZM13.33 10a3.33 3.33 0 1 0-6.66 0 3.33 3.33 0 0 0 6.66 0Zm2.06-2.22a5.86 5.86 0 0 0-3.17-3.17l-.1.86a5.03 5.03 0 0 1 2.4 2.42l.87-.11Zm1.7-.21a7.5 7.5 0 0 0-4.66-4.64l-.1.85c1.8.67 3.22 2.1 3.9 3.9l.85-.11Z" fill="#303030"/></svg>