<svg width="24" height="24" viewBox="0 0 24 24" fill="none" xmlns="http://www.w3.org/2000/svg">
<path d="M23.2932 19.9053C24.2306 20.8427 24.2306 22.3614 23.2932 23.2988C22.8282 23.7675 22.2133 24 21.5983 24C20.9834 24 20.3699 23.7656 19.9019 23.2969L11.9991 15.3982L4.09693 23.2951C3.62822 23.7675 3.01401 24 2.39981 24C1.78561 24 1.17216 23.7675 0.70307 23.2951C-0.234357 22.3576 -0.234357 20.839 0.70307 19.9016L8.60745 11.9972L0.70307 4.09656C-0.234357 3.15913 -0.234357 1.6405 0.70307 0.70307C1.6405 -0.234357 3.15913 -0.234357 4.09655 0.70307L11.9991 8.6112L19.9034 0.70682C20.8409 -0.230607 22.3595 -0.230607 23.2969 0.70682C24.2344 1.64425 24.2344 3.16288 23.2969 4.1003L15.3925 12.0047L23.2932 19.9053Z" fill="#F2EFE7"/>
</svg>
