<svg width="23" height="20" viewBox="0 0 23 20" fill="none" xmlns="http://www.w3.org/2000/svg">
<path d="M11.3903 0C5.07735 0 0.00111633 4.15742 0.00111633 9.28634C0.00111633 11.5017 0.954305 13.5268 2.54459 15.1215C1.98652 17.3704 0.12166 19.375 0.0993372 19.3973C-0.00111597 19.4977 -0.0290196 19.6533 0.0323684 19.7872C0.0881311 19.9212 0.211889 20 0.356988 20C3.31478 20 5.49572 18.582 6.63419 17.7056C8.09099 18.2526 9.71565 18.5713 11.4292 18.5713C17.7421 18.5713 22.8183 14.4135 22.8183 9.32518C22.8183 4.23689 17.7032 0 11.3903 0ZM5.63542 10.715C4.84296 10.715 4.20676 10.0788 4.20676 9.32652C4.20676 8.57423 4.84296 7.89785 5.63542 7.89785C6.42789 7.89785 7.06409 8.53405 7.06409 9.32652C7.06409 10.119 6.46583 10.715 5.63542 10.715ZM11.3903 10.715C10.5978 10.715 10.0018 10.0788 10.0018 9.32652C10.0018 8.57423 10.638 7.89785 11.3903 7.89785C12.1426 7.89785 12.7788 8.53405 12.7788 9.32652C12.7788 10.119 12.185 10.715 11.3903 10.715ZM17.0648 10.715C16.2723 10.715 15.6361 10.0788 15.6361 9.32652C15.6361 8.57423 16.2723 7.89785 17.0648 7.89785C17.8572 7.89785 18.4934 8.53405 18.4934 9.32652C18.4934 10.119 17.8952 10.715 17.0648 10.715Z" fill="#303030"/>
</svg>
