<svg width="15" height="20" viewBox="0 0 15 20" fill="none" xmlns="http://www.w3.org/2000/svg">
<path d="M13.125 2.5H11.0203C10.5039 1.04687 9.12891 0 7.5 0C5.87109 0 4.49609 1.04687 3.98047 2.5H1.875C0.839844 2.5 0 3.33906 0 4.375V18.125C0 19.1602 0.839844 20 1.875 20H13.125C14.1602 20 15 19.1609 15 18.125V4.375C15 3.33906 14.1602 2.5 13.125 2.5ZM7.5 2.5C8.19023 2.5 8.75 3.05977 8.75 3.75C8.75 4.44023 8.19023 5 7.5 5C6.80977 5 6.25 4.44141 6.25 3.75C6.25 3.05977 6.80859 2.5 7.5 2.5ZM10.625 8.75H4.375C4.03125 8.75 3.75 8.46875 3.75 8.125C3.75 7.78125 4.03125 7.5 4.375 7.5H10.625C10.9688 7.5 11.25 7.78125 11.25 8.125C11.25 8.46875 10.9688 8.75 10.625 8.75Z" fill="#303030"/>
</svg>
