<svg width="23" height="20" viewBox="0 0 23 20" fill="none" xmlns="http://www.w3.org/2000/svg">
<path d="M8.68571 0H14.1714C15.0857 0 15.9086 0.594286 16.2057 1.46286L16.6629 2.85714H20C20.7578 2.85714 21.4845 3.15816 22.0203 3.69398C22.5561 4.2298 22.8571 4.95652 22.8571 5.71429V17.1429C22.8571 17.9006 22.5561 18.6273 22.0203 19.1632C21.4845 19.699 20.7578 20 20 20H2.85714C2.09938 20 1.37266 19.699 0.836838 19.1632C0.30102 18.6273 0 17.9006 0 17.1429L0 5.71429C0 4.95652 0.30102 4.2298 0.836838 3.69398C1.37266 3.15816 2.09938 2.85714 2.85714 2.85714H6.19429L6.65143 1.46286C6.94857 0.594286 7.76 0 8.68571 0V0ZM11.4286 15.7143C12.5652 15.7143 13.6553 15.2628 14.459 14.459C15.2628 13.6553 15.7143 12.5652 15.7143 11.4286C15.7143 10.2919 15.2628 9.20184 14.459 8.39811C13.6553 7.59439 12.5652 7.14286 11.4286 7.14286C10.2919 7.14286 9.20184 7.59439 8.39811 8.39811C7.59439 9.20184 7.14286 10.2919 7.14286 11.4286C7.14286 12.5652 7.59439 13.6553 8.39811 14.459C9.20184 15.2628 10.2919 15.7143 11.4286 15.7143V15.7143Z" fill="#303030"/>
</svg>
