<svg width="24" height="20" viewBox="0 0 24 20" fill="none" xmlns="http://www.w3.org/2000/svg">
<path d="M18.2031 6.6933C18.0958 6.60445 17.9719 6.53784 17.8386 6.49735C17.7053 6.45685 17.5653 6.44328 17.4267 6.45743C17.2881 6.47158 17.1538 6.51316 17.0314 6.57975C16.9091 6.64634 16.8012 6.73661 16.7141 6.8453C16.5355 7.06571 16.451 7.34761 16.4789 7.6299C16.5068 7.91219 16.6448 8.17211 16.8631 8.35331C17.3601 8.76731 17.6471 9.36531 17.6471 9.96031C17.6471 10.5933 17.3601 11.1923 16.8611 11.6053C16.643 11.7867 16.5052 12.0466 16.4773 12.3288C16.4494 12.611 16.5337 12.8928 16.7121 13.1133C16.7989 13.2225 16.9068 13.3132 17.0292 13.3801C17.1517 13.4471 17.2862 13.4888 17.4251 13.503C17.5639 13.5171 17.7041 13.5034 17.8376 13.4626C17.971 13.4218 18.0949 13.3547 18.2021 13.2653C19.1961 12.4793 19.7651 11.2773 19.7651 9.95931C19.7651 8.64131 19.1951 7.5163 18.2031 6.6933V6.6933ZM20.8731 3.39629C20.7657 3.3074 20.6417 3.24072 20.5084 3.20011C20.375 3.15951 20.2349 3.14578 20.0962 3.15974C19.9575 3.17369 19.823 3.21504 19.7004 3.2814C19.5778 3.34776 19.4696 3.43779 19.3821 3.54629C19.2041 3.76659 19.1198 4.04799 19.1472 4.32987C19.1747 4.61175 19.3119 4.87154 19.5291 5.0533C20.2616 5.64467 20.8529 6.39205 21.26 7.24094C21.6671 8.08984 21.8796 9.01887 21.8821 9.96031C21.8821 11.8273 21.0251 13.6283 19.5301 14.9053C19.3126 15.0871 19.1753 15.3471 19.1478 15.6292C19.1203 15.9113 19.2048 16.193 19.3831 16.4133C19.4705 16.5218 19.5786 16.6118 19.7011 16.6782C19.8236 16.7445 19.9581 16.7859 20.0967 16.7998C20.2353 16.8138 20.3753 16.8 20.5086 16.7595C20.6419 16.7189 20.7658 16.6522 20.8731 16.5633C22.8621 14.9543 24.0001 12.5453 24.0001 9.95831C24.0001 7.3723 22.8621 5.0393 20.8721 3.39529L20.8731 3.39629ZM13.287 0.125278C13.0387 0.0125709 12.763 -0.0252287 12.4935 0.0165145C12.224 0.0582577 11.9726 0.177729 11.77 0.360279L5.81502 5.7153H2.11801C0.948003 5.7153 0 6.6753 0 7.8583V12.1433C0 13.3263 0.948003 14.2863 2.11801 14.2863H5.81602L11.768 19.6393C11.9706 19.8227 12.2225 19.9425 12.4926 19.9839C12.7626 20.0253 13.0389 19.9865 13.287 19.8723C13.796 19.6423 14.117 19.1323 14.117 18.5743V1.42728C14.117 0.865281 13.796 0.355279 13.288 0.125278H13.287Z" fill="#303030"/>
</svg>
