<svg width="51" height="32" viewBox="0 0 51 32" fill="none" xmlns="http://www.w3.org/2000/svg">
<path d="M42.2222 0H26.2222C24.1004 0 22.0656 0.842854 20.5653 2.34314C19.065 3.84344 18.2222 5.87827 18.2222 8H50.2222C50.2222 5.87827 49.3793 3.84344 47.879 2.34314C46.3787 0.842854 44.3439 0 42.2222 0Z" fill="#0A2540"/>
<path d="M40 0H24C21.8783 0 19.8434 0.842854 18.3431 2.34314C16.8429 3.84344 16 5.87827 16 8H48C48 5.87827 47.1571 3.84344 45.6569 2.34314C44.1566 0.842854 42.1217 0 40 0Z" fill="#0C2B4B"/>
<path d="M18.2222 24C18.2222 26.1217 19.065 28.1566 20.5653 29.6569C22.0656 31.1571 24.1004 32 26.2222 32H42.2222C44.3439 32 46.3787 31.1571 47.879 29.6569C49.3793 28.1566 50.2222 26.1217 50.2222 24V12H2.22217C2.22217 14.1217 3.06503 16.1566 4.56532 17.6569C6.06561 19.1571 8.10044 20 10.2222 20H42.2222V24H18.2222Z" fill="#0A2540"/>
<path d="M16 24C16 26.1217 16.8429 28.1566 18.3431 29.6569C19.8434 31.1571 21.8783 32 24 32H40C42.1217 32 44.1566 31.1571 45.6569 29.6569C47.1571 28.1566 48 26.1217 48 24V12H0C0 14.1217 0.842854 16.1566 2.34314 17.6569C3.84344 19.1571 5.87827 20 8 20H40V24H16Z" fill="#0C2B4B"/>
</svg>
