<svg width="240" height="38" viewBox="0 0 240 38" fill="none" xmlns="http://www.w3.org/2000/svg">
<path d="M226.144 16.0508L222.372 22.0056L210.287 3.30444L199.768 19.5819L194.343 11.188L177.346 37.4909H239.998L226.144 16.0508ZM226.167 20.4475L228.983 24.8054C228.694 24.9508 228.443 25.1155 228.215 25.2661C227.635 25.6488 227.216 25.9253 226.326 25.9253C225.436 25.9253 225.017 25.6488 224.436 25.2661C224.157 25.0815 223.843 24.8758 223.466 24.7105L226.167 20.4475ZM214.529 14.23C213.965 14.4468 213.508 14.7481 213.105 15.014C212.325 15.529 211.65 15.9738 210.299 15.9738C208.948 15.9738 208.274 15.529 207.493 15.014C207.086 14.7449 206.622 14.4395 206.049 14.2221L210.287 7.66525L214.529 14.23ZM198.675 22.2521C198.16 22.4678 197.728 22.7522 197.323 23.019C196.496 23.5646 195.782 24.0357 194.343 24.0357C192.905 24.0357 192.19 23.5646 191.364 23.019C190.959 22.7522 190.527 22.4677 190.012 22.2521L194.343 15.5489L198.675 22.2521ZM181.365 35.6324L188.917 23.9466C189.126 24.0531 189.358 24.2025 189.653 24.3969C190.611 25.0289 191.922 25.8943 194.343 25.8943C196.765 25.8943 198.076 25.0289 199.034 24.3969C199.329 24.2025 199.561 24.0533 199.77 23.9467L207.322 35.6324H181.365ZM210.14 35.6324L201.177 21.7624L204.962 15.9055C205.177 16.0002 205.427 16.1576 205.782 16.3917C206.703 16.9996 207.965 17.8323 210.299 17.8323C212.633 17.8323 213.895 16.9996 214.816 16.3917C215.16 16.1644 215.406 16.0097 215.617 15.9142L220.977 24.2078L213.741 35.6323L210.14 35.6324ZM222.381 26.4242C222.477 26.4819 222.589 26.5538 222.726 26.644C223.414 27.098 224.453 27.7839 226.326 27.7839C228.198 27.7839 229.238 27.098 229.926 26.644C229.988 26.6026 230.045 26.5659 230.098 26.5314L235.979 35.6324H216.549L222.381 26.4242Z" fill="#1A1A1A"/>
<path d="M167.03 16.0508L163.259 22.0056L151.174 3.30444L140.654 19.5819L135.23 11.188L118.232 37.4909H180.885L167.03 16.0508ZM167.054 20.4475L169.87 24.8054C169.58 24.9508 169.33 25.1155 169.102 25.2661C168.522 25.6488 168.103 25.9253 167.212 25.9253C166.322 25.9253 165.903 25.6488 165.323 25.2661C165.043 25.0815 164.73 24.8758 164.353 24.7105L167.054 20.4475ZM155.416 14.23C154.852 14.4468 154.395 14.7481 153.992 15.014C153.211 15.529 152.537 15.9738 151.186 15.9738C149.834 15.9738 149.16 15.529 148.38 15.014C147.972 14.7449 147.509 14.4395 146.936 14.2221L151.173 7.66525L155.416 14.23ZM139.562 22.2521C139.046 22.4678 138.614 22.7522 138.21 23.019C137.383 23.5646 136.669 24.0357 135.23 24.0357C133.791 24.0357 133.077 23.5646 132.25 23.019C131.846 22.7522 131.414 22.4677 130.898 22.2521L135.23 15.5489L139.562 22.2521ZM122.252 35.6324L129.803 23.9466C130.012 24.0531 130.245 24.2025 130.54 24.3969C131.497 25.0289 132.809 25.8943 135.23 25.8943C137.652 25.8943 138.963 25.0289 139.921 24.3969C140.215 24.2025 140.448 24.0533 140.657 23.9467L148.208 35.6324H122.252ZM151.026 35.6324L142.063 21.7624L145.848 15.9055C146.064 16.0002 146.314 16.1576 146.669 16.3917C147.59 16.9996 148.852 17.8323 151.186 17.8323C153.52 17.8323 154.781 16.9996 155.703 16.3917C156.047 16.1644 156.293 16.0097 156.504 15.9142L161.864 24.2078L154.627 35.6323L151.026 35.6324ZM163.268 26.4242C163.364 26.4819 163.476 26.5538 163.613 26.644C164.3 27.098 165.34 27.7839 167.212 27.7839C169.085 27.7839 170.124 27.098 170.812 26.644C170.875 26.6026 170.931 26.5659 170.985 26.5314L176.866 35.6324H157.435L163.268 26.4242Z" fill="#1A1A1A"/>
<path d="M107.409 16.0508L103.637 22.0056L91.5525 3.30444L81.0334 19.5819L75.6091 11.188L58.6113 37.4909H121.264L107.409 16.0508ZM107.432 20.4475L110.248 24.8054C109.959 24.9508 109.709 25.1155 109.481 25.2661C108.9 25.6488 108.481 25.9253 107.591 25.9253C106.701 25.9253 106.282 25.6488 105.702 25.2661C105.422 25.0815 105.109 24.8758 104.732 24.7105L107.432 20.4475ZM95.7946 14.23C95.2311 14.4468 94.7735 14.7481 94.3707 15.014C93.5901 15.529 92.9161 15.9738 91.5647 15.9738C90.2134 15.9738 89.5392 15.529 88.7587 15.014C88.3512 14.7449 87.8878 14.4395 87.3151 14.2221L91.5524 7.66525L95.7946 14.23ZM79.9409 22.2521C79.4254 22.4678 78.9933 22.7522 78.589 23.019C77.7621 23.5646 77.0481 24.0357 75.6091 24.0357C74.1702 24.0357 73.4561 23.5646 72.6292 23.019C72.2249 22.7522 71.7927 22.4677 71.2772 22.2521L75.6091 15.5489L79.9409 22.2521ZM62.6304 35.6324L70.1822 23.9466C70.3913 24.0531 70.6238 24.2025 70.9185 24.3969C71.8762 25.0289 73.1878 25.8943 75.6091 25.8943C78.0304 25.8943 79.342 25.0289 80.2997 24.3969C80.5942 24.2025 80.8267 24.0533 81.0359 23.9467L88.5873 35.6324H62.6304ZM91.4053 35.6324L82.4422 21.7624L86.2272 15.9055C86.443 16.0002 86.693 16.1576 87.0479 16.3917C87.9691 16.9996 89.2307 17.8323 91.5647 17.8323C93.8987 17.8323 95.1603 16.9996 96.0816 16.3917C96.426 16.1644 96.6716 16.0097 96.8831 15.9142L102.243 24.2078L95.0063 35.6323L91.4053 35.6324ZM103.647 26.4242C103.743 26.4819 103.855 26.5538 103.992 26.644C104.679 27.098 105.719 27.7839 107.591 27.7839C109.464 27.7839 110.503 27.098 111.191 26.644C111.254 26.6026 111.31 26.5659 111.364 26.5314L117.245 35.6324H97.8142L103.647 26.4242Z" fill="#1A1A1A"/>
<path d="M48.7979 16.0508L45.0261 22.0056L32.9412 3.30444L22.422 19.5819L16.9978 11.188L0 37.4909H62.6528L48.7979 16.0508ZM48.8211 20.4475L51.6372 24.8054C51.3481 24.9508 51.0976 25.1155 50.8692 25.2661C50.2891 25.6488 49.8701 25.9253 48.98 25.9253C48.0899 25.9253 47.6708 25.6488 47.0907 25.2661C46.8108 25.0815 46.4977 24.8758 46.1207 24.7105L48.8211 20.4475ZM37.1833 14.23C36.6198 14.4468 36.1622 14.7481 35.7594 15.014C34.9788 15.529 34.3048 15.9738 32.9534 15.9738C31.602 15.9738 30.9279 15.529 30.1474 15.014C29.7399 14.7449 29.2764 14.4395 28.7037 14.2221L32.941 7.66525L37.1833 14.23ZM21.3295 22.2521C20.8141 22.4678 20.382 22.7522 19.9776 23.019C19.1508 23.5646 18.4367 24.0357 16.9978 24.0357C15.5588 24.0357 14.8448 23.5646 14.0179 23.019C13.6136 22.7522 13.1814 22.4677 12.6659 22.2521L16.9978 15.5489L21.3295 22.2521ZM4.01908 35.6324L11.5708 23.9466C11.78 24.0531 12.0125 24.2025 12.3072 24.3969C13.2649 25.0289 14.5765 25.8943 16.9978 25.8943C19.4191 25.8943 20.7307 25.0289 21.6883 24.3969C21.9829 24.2025 22.2154 24.0533 22.4246 23.9467L29.976 35.6324H4.01908ZM32.7939 35.6324L23.8309 21.7624L27.6158 15.9055C27.8316 16.0002 28.0817 16.1576 28.4366 16.3917C29.3578 16.9996 30.6194 17.8323 32.9534 17.8323C35.2874 17.8323 36.5489 16.9996 37.4702 16.3917C37.8146 16.1644 38.0603 16.0097 38.2717 15.9142L43.6312 24.2078L36.3949 35.6323L32.7939 35.6324ZM45.0354 26.4242C45.1316 26.4819 45.2433 26.5538 45.3802 26.644C46.068 27.098 47.1077 27.7839 48.98 27.7839C50.8524 27.7839 51.892 27.098 52.5799 26.644C52.6427 26.6026 52.6991 26.5659 52.7526 26.5314L58.6337 35.6324H39.2029L45.0354 26.4242Z" fill="#1A1A1A"/>
<path fill-rule="evenodd" clip-rule="evenodd" d="M182.423 8.98462L189.602 20.4968L187.68 21.6958L182.446 13.304L173.748 27.5943L171.812 26.4162L182.423 8.98462Z" fill="#1A1A1A"/>
<path fill-rule="evenodd" clip-rule="evenodd" d="M110.352 0.705566L119.35 14.6075L117.448 15.8387L110.411 4.9673L101.24 20.0415L99.3047 18.8638L110.352 0.705566Z" fill="#1A1A1A"/>
<path fill-rule="evenodd" clip-rule="evenodd" d="M121.332 8.27734L130.676 22.5187L128.781 23.7617L121.393 12.5011L112.566 26.8439L110.637 25.6564L121.332 8.27734Z" fill="#1A1A1A"/>
<path fill-rule="evenodd" clip-rule="evenodd" d="M50.3145 0L67.982 26.375L66.0994 27.636L50.3754 4.16229L41.5651 18.1856L39.6465 16.9802L50.3145 0Z" fill="#1A1A1A"/>
<path fill-rule="evenodd" clip-rule="evenodd" d="M181.679 22.7687C179.356 22.4389 177.101 21.1048 176.268 19.1401L178.353 18.2549C178.777 19.2528 180.169 20.2658 181.998 20.5253C183.752 20.7744 185.656 20.2818 187.003 18.6121L188.766 20.0347C186.831 22.4332 184.077 23.109 181.679 22.7687Z" fill="#1A1A1A"/>
<path fill-rule="evenodd" clip-rule="evenodd" d="M106.783 12.8477C105.88 12.4076 105.043 11.7787 104.572 10.9472L106.544 9.8313C106.702 10.1108 107.091 10.4774 107.775 10.8105C108.439 11.1334 109.284 11.3767 110.206 11.4748C112.074 11.6737 114.035 11.2614 115.361 10.029L116.904 11.6883C114.948 13.5071 112.25 13.9711 109.966 13.7279C108.812 13.6051 107.708 13.2978 106.783 12.8477Z" fill="#1A1A1A"/>
<path fill-rule="evenodd" clip-rule="evenodd" d="M120.921 22.0117C118.71 21.6736 116.604 20.3112 115.834 18.3576L117.942 17.5269C118.34 18.5359 119.619 19.5205 121.264 19.7718C122.833 20.0116 124.558 19.5469 125.8 17.8889L127.613 19.2473C125.808 21.6575 123.208 22.3612 120.921 22.0117Z" fill="#1A1A1A"/>
<path fill-rule="evenodd" clip-rule="evenodd" d="M49.8848 14.4338C47.5632 13.9902 45.5262 12.2386 44.8125 9.97474L46.9735 9.29346C47.4273 10.7329 48.7761 11.9151 50.3101 12.2082C51.7421 12.4818 53.4452 11.9947 54.7399 9.83414L56.6835 10.9988C54.931 13.9235 52.3085 14.8969 49.8848 14.4338Z" fill="#1A1A1A"/>
</svg>
