<svg width="846" height="91" fill="none" xmlns="http://www.w3.org/2000/svg"><path d="m37 22 4-9 2-6-5 11-1 4ZM19 77Zm0-1Zm-2-1v1l1-1h-1Zm-5 7h1l4-7-4 5-1 2Zm2-7-2 3h-1l-1 4 4-7Zm4-1v1-1Zm-3 1h1v-1l-1 1Zm5-1v1-1Zm1 1 1-1h-1v1Zm3-2v1-1Zm-1-1v1h1v-1h-1Zm2 0Zm-5-1-1 1v1l1-1v-1Zm4-1 1 1v-1h-1Zm-2 0 1 2v-2h-1Zm-10 6 4-5v-1h-1l-3 6Zm12-8v1-1Zm-7 0v1-1Zm6-2v1h1l-1-1Zm-6-3v2h1v-2h-1Zm-1-3v1l1 2v-1l-1-2Zm9 3v1l3-6-3 5Zm-3-8v3-3Zm-9-2v1l2 8-1 1 1 3h1v-2l-3-11Zm17 0-1 3 2-3h-1Zm-13-3 2 8h1l-3-8Zm-1-1Zm-3-2v1-1Zm2 0 1 1v-1h-1Zm5 0 1 7h1l-2-7Zm6 0-3 7v1l4-8h-1Zm-6 0Zm0-1Zm9 0v-1 1Zm-10-1v1h1v-1h-1Zm0-1v1-1Zm-4 0v1-1Zm4 0Zm-4 0Zm4-1v1-1Zm0 0Zm0-1Zm-7-1v1l1 5-1-6Zm-2-2h1-1Zm4-1v1-1Zm17 16h1l-4 7-2 4h-1l1 2a258 258 0 0 0 5-13Zm-1-12 2-5-2 5Zm8-6c-1 2-3 5-4 11l3-6h-1l2-5Zm-6 0Zm1 1 1-1h-1v1ZM6 35h1-1Zm1-1v1l3 9v1h1v-1L7 34Zm0 0Zm8-2v1-1Zm-4 0v1-1Zm0 0Zm0 0Zm23 3h1l1-4-2 4Zm-23-5v1-1Zm30 1 1-1-1 1Zm-31-2Zm25-3ZM8 25Zm-3 0 3 7 2 7v-1L6 27l-1-2Zm33-1a112 112 0 0 0 1 0h-1Zm4 3h1l2-4-3 4Zm-7-2 1-2-1 2Zm6-3v1-1Zm1-1v1-1Zm0 0 1-1-1 1ZM8 19v1l2 4 7 20-2-8-7-17Zm-3 0Zm40 0-2 5 2-5Zm-2 1 1-2-1 2Zm-2-1 2-2-2 2Zm5-3Zm-4-2-3 6h1l2-6Zm-4 0-8 21v2l4-13 4-10ZM3 14v2h1l-1-2Zm-1-1h1-1Zm0-1v1-1Zm40 4c2-1 3-2 3-4l-3 4ZM2 12Zm43-3-2 3v1l2-4Zm-2-5h1v1l-1 4 3-3 1 1-2 3h1v2h1l-1 2v1h1v3l2-5h1v1a186 186 0 0 0-6 18l-1-1v-2l-4 11a1213 1213 0 0 0-13 28 188 188 0 0 0 3 13l-1 1-2-5-1-4v4h-1v1l-2-3-2 3 1 1v1h-1l-1-1-1-2-6 7h-1v-1l1-2-2 2H9l2-7v-1h-1v1H9v-1l6-8A623 623 0 0 0 5 40a157 157 0 0 1 8 20l-2-12-3-7-3-7v-1l1 1L0 6V5h1l2 8 5 12v-1l-2-6 1-1-1-3a86 86 0 0 1 8 17l-4-14h1l3 9a106 106 0 0 1 5 16l-2-7v-1l3 8 2 10a153 153 0 0 0 10-25l6-15h1v2l4-10Zm53 3 1-1-1 1ZM83 78v1-1Zm-2 0v1-1Zm3-1h1-1Zm-2 0Zm2-1v1-1Zm1-1h1-1Zm-5-2h1-1Zm1-2v1h1v-1h-1Zm2-1Zm4 3v1l5-4v-1l-5 4Zm-3-4Zm-4-2 1 4v-1l-1-3Zm3-1v2-2Zm12-1 1 1 1-2-2 1Zm-3-2Zm-15 0h1-1Zm15 8 8-7 2-2-2 2-5 2-3 4v1Zm7-8v1l2-2h-1l-1 1Zm0-1Zm-18-2 1 3-1-3Zm20 0v1l1-1v-1l-1 1Zm-22-1 3 10h1a83 83 0 0 1-4-10Zm27-1 1-1v-1l-1 2Zm-11 2 4-4-4 4Zm-16-5v3-3Zm11 9 8-9c-3 2-6 5-8 9Zm1 9a116 116 0 0 0 20-19l-4 5-7 7-9 7ZM79 54v1-1Zm-2-4Zm42-1v1-1Zm-1-1v1h1l-1-1Zm-9 6 6-4 2-2h-1l-6 5-1 1Zm8-7v1l1-1h-1Zm-18 6 9-7-9 7Zm17-7Zm-5 1 1-1-1 1Zm10-1-1 1 3 3-2-4Zm-12 1 2-2-2 2Zm8-2Zm2 0 1-1-1 1Zm-9-1Zm8 0 1-1-1 1Zm-7-1h1v-1l-1 1Zm4-1v1h1v-1h-1Zm5 0 1-1-1 1Zm3-1 1-1-1 1Zm-7 0 1 1 1-1-1-1-1 1Zm-3-2v1h1l-1-1Zm13-1v1h1v-1h-1Zm-8 1 1 1 3-3-4 2Zm-52 1 3-4-3 4Zm61-2 2-2-2 2Zm-4 2 4-4-2 2-2 2Zm-13-4 3 4-3-4Zm-38-1 4 15h1v-1l-3-9a77 77 0 0 1-2-5Zm36-2h1-1Zm-32-1 1 1-1-1Zm30-2 2 2-1-2h-1Zm0-1Zm0-2 8 11v1l2-2-9-10h-1Zm0-1v1-1Zm-37-3 2 5v-1l-1-4h-1Zm8 0 1-1-1 1Zm-8-1Zm0 0Zm10 0 2-1-2 1Zm20-3 5 7v-1l-5-6Zm-22 3 4-4-4 4Zm18-5 1 2-1-2Zm3-1 1 1-1-1Zm-7 0c-7 6-11 11-14 15a346 346 0 0 0 9 35l7-8 7-7 10-8-1-1v1L98 25l-7-9Zm4 0h1-1Zm-11-1h1-1Zm8-1 2 2v-1l-2-1Zm-1-3h1-1Zm3-1V9v1Zm0-6h1l-2 3h1l4-3h1l-6 8v1l3 2-1-3h1l6 9 14 16 3-2 6-6-6 7-1 1 4-1 2-2h1v1l-1 2 4-5h1v1l-1 2 2-1h1l-3 4-3 2-3 4-1 1 3 6v1l-4-4 1 3v1l-4-3-5 5v1L98 69l-9 6v-1l-2 2 2 9-4-7h-1l1 4h-1l-1-3-4 4h-1l2-2 1-1h-1l-1 1h-1l1-2-3 3v-2l3-3h-1l-3 2v-1l4-4 1-2-3-10-2-4h1l2 4v-1l-2-7v-1l-4-17h-1l-1 3h-1l-6 7-1-1 3-4h-1l2-2v-1l-3 2v-1l2-1-1-1 5-4v-1h-1l2-2-2-5h1v1l-2-10 4 8v-2h1l1 3-1-6h1l1 5 8-9 5-4-1-1 1-1 1 1-3-4h1l3 4 3-3 1-2 1-1Zm46 12v-4 4Zm18 63v-1 1Zm1-1Zm-8 1 4-2v-1l-4 3Zm7-4-1-1v1h1Zm3-2h1v-1l-1 1Zm-6 0Zm2-3Zm16 0 2-2v-1l-2 3Zm-16 0-2-2 2 2Zm-2-3h-1 1Zm10 2 8-5-8 5Zm15-7 1-1h-1v1Zm-39 0v-1 1Zm42-3v-1 1Zm-42 0v-1 1Zm42-2Zm3 0v-1l-1 1h1Zm-47 0Zm0-1h-1 1Zm-1-1Zm47 1 3-2v-1l-3 2v1Zm-39 1v-6 6Zm37-1v-7 7Zm-40-3v-7 7Zm1 2V43v12Zm39-14v-2h-1l1 2Zm0-8v-1 1Zm-39 1v-2 2Zm37 0h1v-2l-1-2v4Zm1-7v-1 1Zm-36 16v-4l-1-14v18h1Zm-5 3v-8h1v-6l-1-1v-6 7h-1l1 14Zm43-27v-4 4Zm-37 64h-1l8-8-5-8-2-3v5h-2v-7 3l-1-1v-2l-1 6v-5l-1 3-1 2-1-6v-2l-3-5-1-1v-3l3 4h1a101 101 0 0 0-4-6h1l-1-1v-1h1l3 3-1-19 1-1a1375 1375 0 0 1 0-23l1 7v-1l1-3v1l1 10V10h1V9h1v9-1h1v21a393 393 0 0 1 1 20h1v1l9 10 2 3c2 0 4-2 6-4 1-1 3-3 7-4l5-3 3-4v-7l-1-17-1-2 1-1V7v1h1v1h1V6v1l1 6v8l1-12V8l1-1v1l1 37v9l4-2v3l-1 1 3-1h1l-6 5v2h-1v-1h-1l1 4-1 3v-2l-1-5v4l-1-2h-1l1 5h-1v-4h-1l-1 1-6 6v-2l-10 7 2 2-1 1-2-2h-1l4 5-2-1-3-3-1 1 1 2h-1l-2-1-1 1h-1l1-2-5 3 5-4-9 5Zm72-76h-2 2Zm16 73v-1l-1 1h1Zm-1 2-2-2v1l2 1Zm-3 0v-1l-2-1 2 2Zm2-3h1v-1l-2-1-2 1 2 1h1Zm-3-3v-1l-1 1h1Zm4 1 1-5-3 4 2 1Zm-4-2 2-4-2 3v1Zm-5-2h1l-2-1 1 1Zm-2 4-5-3 5 3Zm17-13h1l-1-1v1Zm-2 1 3-4v-1l-3 5Zm-22 7-4-2 4 2Zm18 5h1l11-19-9 11a58 58 0 0 0-3 8Zm16-19-2-1v1h2Zm-9 5 4-6-4 6Zm5-6v-1 1Zm1-2Zm-10 5 3-4-3 4Zm3-4h1l-1-1v1Zm-18 16c-1-2-4-3-6-4l-6-3 2 2 10 5Zm26-20Zm1-1h1l-2-1v1h1Zm1-1 1-1-2-1v1l1 1Zm-10 4 1-1-7-3h-1l7 4Zm5-5v-1l-4-1 4 2Zm1-1v-1l-9-3 9 4Zm-6-4-6-2 6 2Zm-3 5-7-3-4-2 11 5Zm5 1h1l-13-8a98 98 0 0 0 12 8Zm-19-6-3-1 3 1Zm7-5-3-1 3 1Zm-16-2Zm16 8h1a161 161 0 0 0-16-8l8 4 7 4Zm-16-8h-1 1Zm-1 0-2-2 2 2Zm-4-2-1-1 1 1Zm0-1-1-1 1 1Zm8-1-5-3v1l5 2Zm-6-2 1-1-1-1-1 1 1 1Zm-8 3 2-4-2 4Zm37-16-3-1v1h3Zm-3 0v-1 1Zm-1-1Zm-24 12 2-4-3 3v1h1Zm24-12Zm-30 11 1-1-1 1Zm29-11Zm10-2h4l-4-1h-2l-2 1h4Zm-10 2Zm-30 11 1-2h-1l-1 2h1Zm1-3Zm-3 2 1-2-1 2Zm36-12h-5l-1-1h-2l8 1Zm-7 1v-1h-3l3 1Zm8-6-1-1v1h1Zm-17 6v-1 1Zm-18 8 2-3-2 3Zm24-10h1l-3-1 2 1Zm-16 11 7-9-4 5h-1l-2 4Zm8-9 2-2-1-1-1 3Zm-11 5 4-6c-1 0-3 2-4 6Zm20-11-5-1 5 1Zm-15 4 2-2-2 2Zm9 71h-1l2-1 1-3-1-1-1 1h-1l-2 3 2-4v-1h1-1v1l-1-1v-1a194 194 0 0 0-12-9h1l-4-3v-1l-1-1v-1h1l10 5-6-6v-1l5 4 5 5 5 2 6-7 7-9 1-1-12-8-19-9v-1l9 4-9-5a41 41 0 0 1-2 5h-1l2-5-2-1-4 5-1 2-2 1v1l-1-1 3-3h-1l-1-1 5-9h-1a51 51 0 0 0-6 14l-1-1 2-6 3-8-3-1v-1l3 1 2-4-1-1 2 1 5-7h1l-1 2 6-8h-2v-1h2V9h3V8l-5-2V5a108 108 0 0 1 9 1l3-2-1 2 6-5-4 6 8 1-7-1V6a82 82 0 0 1 14 3h1l12 3 2 1h-2a17 17 0 0 1-4 0h-2l3 2-4 1h2v1h-4a78 78 0 0 1-8-1v1l6 1v1h-1a60 60 0 0 1-17-4 47 47 0 0 0-6 7v-2l-6 10 9 6a160 160 0 0 1 26 10h1a168 168 0 0 1 13-11 170 170 0 0 1-12 12l4 2h-2v2l1 1-1 1-1-1-2 3 5 2-5-2-1 1 5 4h-1l-5-2-12 21 2 2h-1l1 1v1h-1l1 1-5-2v1h-1v1l-4-2-2 3h-1Zm98-12-1-15v-2l1 17Zm28-61h-1 1Zm-4 1 3-1-3 1Zm-7 2 3-1v-1l-3 1v1Zm-5-2 7-3h1c-3 0-5 1-8 3Zm0 5 4-2h-1l-3 2Zm-21 2v-1h-1v1h1Zm0-1h1-1Zm3 0v-1 1Zm2 1Zm0-1-1-1 1 1Zm0 8v-4h-1l1-1v-1l-1 1 1 5Zm14 47 1-1h-1v1Zm5-6Zm1 0Zm-1-1 7-2h1v-1l-8 3Zm-1 0h1-1Zm0 3h1v-1l-1 1Zm-1 1h1-1Zm-3 0 3-2-4 1v1h1Zm-1-2v-1 1Zm-2 3h1v-1h-1v1Zm0-3Zm-2-15Zm0 6-1-10h-1l2 9v1Zm-2-10h1v-1h-1v1Zm0 8v-1 1Zm0-37 2-1h-1l-2 1h1Zm-2-3 1-1 2-1-2 1v-1l2-1-4 1 1 2Zm0 29v-2h-1l1 2Zm-1-18Zm0-1v-4 4Zm0-6v-1 1Zm-1-4h1v-1h-1v1Zm-1 2h1-1Zm1 35-1-5v1l1 4Zm-2-35h1l-1-2v2Zm0 1h1-1Zm2 5-1-4h-1l1 4h1Zm-1 36v-2 2Zm0 1v-1 1Zm1 11-1-11v1l1 10Zm0 2v-1 1Zm2-10v-2l-1-4a166 166 0 0 1 1 6Zm0 0Zm0 5h1-1Zm1 2Zm0-1Zm0-29h1l-2-13v4l1 6v3Zm0 7Zm0 1Zm0 1Zm0 18Zm1 1h-1 1Zm0-8v-1 1Zm1 8v-1l-1-7 1 8Zm2 5Zm1-3-1-2v2h1Zm-1 12v-2l-1-1 1 3Zm0-6h-1 1Zm0-1-1-7-1 1 1 6h1Zm-1-10v-3l1-1-3-6 2 10Zm0-19 3-1h-3v1Zm13-6h-1 1Zm9-1Zm-8 3 7-3-6 2h-1v1Zm-12 45-2-6-1-7-1-5v10l-1-4-1-2h-1a8 8 0 0 1 1 3l-1 1-1-3v3l-1 1-1-4-1 1v-1l-6 3-1-1 8-3-4 1v-1l4-1v-1a398 398 0 0 1 0-23l-3 1 3-2v-1l-5 2v-1l5-2v-3l-1-12-2-8-9 2 2-1 6-2v-2l-4 1h-1l5-2-1-1a258 258 0 0 0-11 2 62 62 0 0 1 11-4l-1-8 2 8h1l-1-5 1 1 1 3h1v-3h2v2h1V7l1 7v1l1 1a547 547 0 0 1 18-4l3-2v1l-1 1 11-2 1 1-12 4a126 126 0 0 1-20 7v1l2 12 1 7 2-1a420 420 0 0 0 20-7v1l-5 2-5 4 7-4h1l-6 4 3-1h3l3-1h1l4-1-7 3-1 1a338 338 0 0 1 10-2l-13 5-16 5 1 7a83 83 0 0 1 3 11 180 180 0 0 1 16-5v1l3-1v1l-4 2 1-1v1l8-3c-2 2-5 3-10 4l-3 2a106 106 0 0 1 13-4l-16 6-7 3v5l-1-4-1-2h-1l1 7v1h-1v9Zm54-77 1 4h1l-1-4h-1Zm17 55Zm0-1Zm0-1v1-1Zm-1-1v1h1v-1h-1Zm0-1v1-1Zm0 0Zm2-1Zm-2 0Zm2-1v1-1Zm-2 0v1-1Zm-7 0Zm-1-1h1-1Zm2-1v1l1 6-1-7Zm7 0v2h1l-1-2Zm0-1v1-1Zm0 0Zm-1-2Zm-1-1v1h1v-1h-1Zm0-1v1-1Zm0 0Zm-8 0Zm0-1Zm0-1v1-1Zm0-1v1-1Zm0 0Zm-1-1h1-1Zm10-1v1-1Zm-10 0Zm8-1Zm0 0Zm-1-1h1-1Zm0-1v1-1Zm0 0Zm0-1Zm-3 0a89 89 0 0 0 7 26l-4-13-3-13Zm3-1v1-1Zm-4 0h1-1Zm4 0Zm-1-1h1-1Zm0-1v1-1Zm0 0Zm1-2 2 9h1l-3-9Zm0 0Zm0-1Zm0-1v1-1Zm-7 0v1l2 11-1-5-1-7Zm7 0Zm-7 0Zm6-1v1h1v-1h-1Zm-6 0Zm6 0Zm-7-2v1-1Zm-1-1v1h1v-1h-1Zm0-2v2-2Zm0-1Zm4-1 3 12-2-12h-1Zm1-1 2 9 1-1-3-8Zm-1 0v1-1Zm2 0Zm-1 0Zm0-2 1 1v-1h-1Zm-9-2h1v-1l-1 1Zm-5-2h1-1Zm2 0v1l3-1v-1l-3 1Zm-4-1Zm-7-1v1h1v-1h-1Zm11 0Zm-10 0Zm19 0Zm-8 0h2-2Zm11 1v1l12-3v-1h-1l-11 3Zm12-3Zm-13 1v1l6-2h-1l-5 1Zm6-1Zm7-1h1-1Zm-2 0h1-1Zm1 0h1-1Zm-8 0h2-2Zm3 0Zm-13-1Zm4 0Zm-4-1v1-1Zm2-7 3 8 1-1v1a108 108 0 0 1 18-4l-2 1h4l-3 1-2 1h1l4-1v1l-4 1-2 1 9-2-9 4-13 4 4 12 4 16 4 17 1 4-1 1-2-8h-1v1l1 1h-1a192 192 0 0 1 1 9l1 1h-1l-3-7v1l1 4-4-9-1 1v5-1l-1-3v1h-1v-1 1h-1v-8l-1 1-1-5a170 170 0 0 0-3-17l-2-15-1-1-8 2v-1l4-1h-1l-9 2v-1l-2 1v-1l7-2 3-1-7 2-1-1 6-2a123 123 0 0 1-11 1l3-1h1-2v-1h1l14-3-3-8 4 8c0-4-1-6-2-7l1-1 1 1v-2l1 3h1v-1h1v-2h1Zm49 63-1-15-1-2 2 17Zm27-61Zm-3 1 3-1h-1l-2 1Zm-8 2 4-1v-1h-1l-2 1-1 1Zm-4-2 7-3-7 3Zm-1 5 4-2-4 2Zm-21 2v-1 1Zm1-1h1-1Zm2 0h1v-1h-1v1Zm2 1h1-1Zm0-1v-1 1Zm1 8v-4h-1l1-1v-1l-2 1 1 5h1Zm13 47 1-1h-1v1Zm6-6Zm1 0h-1 1Zm-1-1 7-2 1-1h-1l-7 3Zm-1 0Zm0 3h1v-1l-1 1Zm-1 1h1-1Zm-4 0 4-2-4 1v1Zm0-2v-1l-1 1h1Zm-2 3h1l-1-1v1Zm0-3Zm-2-15Zm0 6-1-10h-1l1 9 1 1Zm-2-10v-1 1Zm0 8v-1 1Zm-1-37 2-1-2 1Zm-2-3 2-1 1-1-1 1v-1l1-1-3 1v2Zm0 29 1-1v-1h-1v2Zm0-18Zm0-1v-4l-1 1 1 3Zm0-6v-1h-1v1h1Zm-2-4h1v-1h-1v1Zm0 2h1-1Zm1 35-1-5v1l1 4Zm-2-35v-2 2Zm0 1Zm1 5v-4h-1l1 4Zm0 36v-2h-1v2h1Zm0 1v-1l-1 1h1Zm1 11-1-11v11h1Zm-1 2 1-1h-1v1Zm3-10v-2l-1-4a176 176 0 0 1 1 6Zm0 0Zm0 5Zm1 2h-1 1Zm-1-1Zm1-29-1-13v4l1 6v3Zm0 7Zm0 1Zm0 1Zm0 18Zm0 1Zm0-8v-1 1Zm1 8 1-1-1-7h-1l1 8Zm3 5Zm0-3v-2 2Zm0 12v-2l-1-1 1 3Zm-1-6Zm0-1v-7l-1 1 1 6Zm0-10v-4l-2-6 2 10Zm0-19 2-1h1-3v1Zm12-6Zm10-1Zm-8 3 7-3-6 2h-2l1 1Zm-12 45-2-6-2-7v-5h-1v1l1 9-2-4-1-2a8 8 0 0 1 0 3v1l-1-3v3l-1 1-1-4-1 1v-1l-7 3v-1l8-3-4 1v-1l4-1v-1a397 397 0 0 1 0-23l-3 1 3-2v-1l-5 2-1-1 6-2v-3l-1-12-3-8-8 2h-1l3-1 6-2v-2l-5 1 4-2v-1a258 258 0 0 0-11 2 62 62 0 0 1 11-4l-2-8h1l2 8h1l-1-5 1 1 1 3h1v-3h1l1 2h1l-1-8 1-1 1 7v2l7-2a547 547 0 0 1 12-3l2-1 1 1-1 1 11-2 1 1-12 4a126 126 0 0 1-20 7v1l2 12 1 7 2-1a420 420 0 0 0 19-7v1l-4 2-5 4 6-4h2l-6 4 2-1h4l3-1 5-1-7 3-1 1a337 337 0 0 1 10-2l-13 5-16 5 1 7a83 83 0 0 1 2 11 180 180 0 0 1 17-5v1l3-1v1l-5 2 2-1v1l7-3h1c-2 2-6 3-10 4l-3 2a106 106 0 0 1 12-4h1c-3 2-8 4-17 6l-7 3 1 5-2-4v-2h-1l1 7h-1v10Zm53-83h-2 2Zm16 73-1-1v1h1Zm-1 2-2-2v1l2 1Zm-4 0 1-1-2-1h-1l2 2Zm3-3h1-1l1-1-2-1-2 1 2 1h1Zm-4-3 1-1-1 1Zm5 1 1-5-3 4 2 1Zm-4-2 2-4-2 3v1Zm-5-2-1-1 1 1Zm-2 4-5-3 5 3Zm17-13v-1 1Zm-2 1 3-4v-1l-3 5Zm-22 7-4-2 4 2Zm18 5 12-19-9 11a59 59 0 0 0-3 8Zm16-19-2-1h-1v1h3Zm-9 5 4-6-4 6Zm5-6v-1 1Zm1-2Zm-10 5 3-4-3 4Zm3-4v-1 1Zm-18 16-6-4-6-3h-1l3 2 10 5Zm26-20Zm1-1h1l-2-1-1 1h2Zm1-1 1-1-2-1v1l1 1Zm-10 4 1-1-8-3 7 4Zm5-5v-1l-4-1 4 2Zm1-1v-1l-9-3 9 4Zm-6-4-6-2 6 2Zm-3 5-7-3-4-2 11 5Zm5 1c-7-5-11-8-13-8h1a98 98 0 0 0 12 8Zm-19-6-3-1 3 1Zm7-5-3-1 3 1Zm-16-2Zm16 8a161 161 0 0 0-15-8l7 4 8 4Zm-16-8h-1 1Zm-1 0-2-2 2 2Zm-4-2-1-1 1 1Zm0-1-1-1 1 1Zm7-1h1l-5-3v1l4 2Zm-5-2v-2l-1 1 1 1Zm-8 3 2-4h-1l-1 4Zm37-16-3-1v1h3Zm-3 0v-1 1Zm-1-1Zm-24 12 2-4-3 3v1h1Zm24-12Zm-30 11 1-1-1 1Zm29-11Zm10-2h4l-5-1h-1l-2 1h4Zm-10 2h-1 1Zm-30 11 1-2h-1l-1 2h1Zm1-3Zm-3 2 1-2-1 2Zm36-12h-5l-2-1h-1l8 1Zm-7 1v-1h-3l3 1Zm8-6-1-1v1h1Zm-17 6v-1 1Zm-18 8 2-3-3 3h1Zm24-10h1l-3-1 2 1Zm-16 11 7-9-4 5h-1l-2 4Zm8-9 2-2-1-1-1 3Zm-11 5 4-6h-1l-4 6h1Zm20-11-5-1 5 1Zm-15 4 2-2h-1l-1 2Zm9 71h-1l1-1 2-3-1-1-1 1h-1l-2 3 2-4v-1l-1 1v-2a194 194 0 0 0-12-9h1l-4-3h-1l1-1-1-1v-1l11 5-6-6v-1l5 4 5 5 5 2 6-7 7-9 1-1-13-8-18-9v-1l8 4h1l-9-5a41 41 0 0 1-2 5h-1l2-5-2-1-4 5-1 2-2 1v1l-1-1 2-3-1-1 5-9h-1a51 51 0 0 0-6 14h-1v-1l2-6 3-8-3-1v-1l3 1 2-4-1-1 2 1 5-7h1l-1 2 6-8h-2v-1h2V9h3V8l-6-2 1-1a108 108 0 0 1 9 1l3-2-1 2 5-5h1l-5 6 9 1-7-1-1-1h1a82 82 0 0 1 14 3l13 3 2 1h-2a17 17 0 0 1-4 0h-2l3 2-4 1h2v1h-4a78 78 0 0 1-8-1v1l6 1v1h-1a60 60 0 0 1-17-4 47 47 0 0 0-6 7v-2l-6 10 9 6a160 160 0 0 1 25 10h2a168 168 0 0 1 12-11 171 171 0 0 1-11 12l4 2h-2l-1 2 1 1v1l-1-1-2 3 5 2h-1l-4-2-1 1 5 4h-1l-5-2-12 21 1 2 1 1v1h-1l1 1-5-2v1h-1v1l-4-2-3 3ZM635 9V8v1Zm-26 65Zm0 0Zm-1-1Zm-1-1h1-1Zm-1-5v1-1Zm-3-2 1 8-1-8Zm49-1Zm-3-2v1h1v-1h-1Zm0 0Zm-2-1 2 8-2-8Zm2 0Zm-43 0 2 9 1 3-3-12Zm41-1v1-1Zm0-1v1-1Zm0 0Zm-1-1h1-1Zm0-1Zm0-1Zm-32 0h1-1Zm35-1v1-1Zm-3 0v1-1Zm-46-2v1a176 176 0 0 0 0-1Zm44 0v1-1Zm0 0Zm-44 0Zm45-1v1-1Zm-2 0h1-1Zm-22 0h1-1Zm-1 0-1 2h1v-2Zm28-1 1 4-1-4Zm0-1v1-1Zm-28 0v1h1l-1-1Zm-6-1Zm0 0Zm32-2v1-1Zm-4 0v1l1 4-1-5Zm-21 0-1 2 1 1 1-2-1-1Zm21 0Zm4 0Zm-31 0-1 1 2-1h-1Zm32-1v1-1Zm-1 0v1-1Zm1-1v1-1Zm-1 0v1-1Zm0 0h1-1Zm0 0Zm-3 0Zm-24 0v-1 1Zm26-1h1-1Zm-2 0Zm-41 0 3 16 1-1-4-15Zm43-1v1-1Zm-3 0v1h1v-1h-1Zm-1 0Zm4 0Zm-1 0Zm-2-1v1-1Zm-23 0v1-1Zm-17 0v1-1Zm43 0Zm-3 0Zm-40 0Zm43-1v1-1Zm-27 1v-1 1Zm-17-1h1-1Zm44 0Zm-22 4v1l3-6-3 5Zm-3-5v1-1Zm-19 0v1-1Zm0-1v1-1Zm0 0Zm39 0v3h1l-1-3Zm-1-1h1-1Zm0-1v1-1Zm2 0 1 5v-1l-1-4Zm-2 0Zm-28 0Zm-14 0Zm42-1v1-1Zm0-2Zm0 0Zm-30 0 2 2-2-2Zm-3-1 8 11-2-4-3-4-3-3Zm33 0Zm-15 0-1 1h1v-1Zm-16 0h1-1Zm21-1a45 45 0 0 0-7 11h1l6-11Zm10 0Zm-14-1-1 1 1-1Zm-14-2v1-1Zm-11-1-1 1 7 29 9-12a1122 1122 0 0 0-15-16v-2Zm30-1-3 6a44 44 0 0 1 4-5l-1-1Zm-31 0v1h1v-1h-1Zm1-1 4 4-4-4Zm-1-2v1-1Zm38-1v1-1Zm0 0Zm-36-1 2 3-2-3Zm35 0h1-1Zm-7 4 2-4-2 4Zm14-4 5 25 4 16v1-1a905 905 0 0 0-8-41h-1Zm0-1Zm-47 0v1-1Zm47-1v1-1Zm-13 7h1l3-7-4 7Zm-31-9v1-1Zm39-3v1h1v-1h-1Zm-45 0Zm-2 0h1-1Zm46 1v1l1-2-1 1Zm4-2-3 5a184 184 0 0 1 6 23l-4-18h1l2 8 3 12a620 620 0 0 0-5-30Zm-47-1v1l2 3 1 2v-1l-1-3-2-2Zm46 0-1 2 1-2Zm-7 0-1 2v1l1-1v-2Zm-42 0Zm2-1v1-1Zm-3 0h1-1Zm47 2 3-3-1-1-2 4Zm-46-4Zm43 0v3l1-2v-1h-1Zm6-1h1-1Zm-1-1-3 4 3-3V8Zm-54-4h1l3 5V8h1l1 1V7l1 3 4 4v-3l1 2 2 2 7 9 3 4v-3l1 2a92 92 0 0 0 8 12h1l14-28V9l1 1 2-4v5l2-5h1l1 2 3-2h1v2l-2 4a271 271 0 0 1 12 57c2 3 2 6 2 9v1l-2-8-3-5v2l-1-5v6l1 6h-1a90 90 0 0 1-6-19v9l-2-13-7-28-9 18-2 4v1l4 7h-2l-3-5-1 2 3 4-1 1-3-3-2 4h-1v-1l1-5a77 77 0 0 0-5 9l-1-1 1-2h-1l3-5 1-4-3 5v-3l-7 10 4 22-3-9 1 5h-1l1 3v1h-1l-2-8h-1l1 9v3h-1l-2-14a285 285 0 0 1-6-32l-3-16-3-7-5-6v-1h1l3 3-5-8V4Zm114 3 1-1-1 1Zm-13 71v1-1Zm-2 0v1-1Zm3-1h1-1Zm-2 0Zm2-1v1-1Zm1-1h1-1Zm-5-2h1-1Zm1-2v1-1Zm2-1Zm4 3v1l5-4v-1l-5 4Zm-3-4Zm-4-2 1 4v-1l-1-3Zm3-1v2-2Zm12-1 1 1 1-2-2 1Zm-4-2h1-1Zm-14 0h1-1Zm15 8 8-7 2-2-2 2-5 2-3 4v1Zm7-8v1l2-2h-1l-1 1Zm0-1Zm-18-2 1 3-1-3Zm20 0v1l1-1v-1l-1 1Zm-22-1 3 10h1a83 83 0 0 1-4-10Zm27-1 1-1v-1l-1 2Zm-11 2 4-4-4 4Zm-16-5v3-3Zm11 9 8-9c-3 2-6 5-8 9Zm1 9a117 117 0 0 0 20-19l-4 5-7 7-9 7Zm-12-19v1-1Zm-3-4h1-1Zm43-1v1-1Zm-1-1v1h1l-1-1Zm-9 6 6-4 2-2h-1l-6 5-1 1Zm8-7v1l1-1h-1Zm-18 6 9-7-9 7Zm17-7Zm-5 1 1-1-1 1Zm10-1-1 1 3 3-2-4Zm-12 1 2-2-2 2Zm8-2Zm2 0 1-1-1 1Zm-9-1Zm8 0 1-1-1 1Zm-7-1h1v-1l-1 1Zm4-1v1h1v-1h-1Zm5 0 1-1-1 1Zm3-1 1-1-1 1Zm-7 0v1h1l1-1-1-1-1 1Zm-3-2v1h1l-1-1Zm13-1v1h1v-1h-1Zm-8 1 1 1 3-3-4 2Zm-52 1 3-4-3 4Zm61-2 2-2-2 2Zm-4 2 4-4-2 2-2 2Zm-13-4 3 4-3-4Zm-38-1 4 15v-1l-2-9a77 77 0 0 1-2-5Zm36-2h1-1Zm-32-1 1 1-1-1Zm30-2 2 2-2-2Zm0-1Zm0-2 8 11v1l2-2-10-10Zm0-1v1-1Zm-37-3 2 5v-1l-1-4h-1Zm8 0 1-1-1 1Zm-8-1Zm0 0Zm10 0 2-1-2 1Zm20-3 5 7v-1l-5-6Zm-22 3 4-4-4 4Zm18-5 1 2-1-2Zm3-1 1 1-1-1Zm-7 0c-7 6-11 11-14 15a346 346 0 0 0 9 35l7-8 7-7 10-8-1-1v1l-11-18-7-9Zm4 0h1-1Zm-11-1h1-1Zm8-1 2 2v-1l-2-1Zm-1-3h1-1Zm3-1V9v1Zm0-6h1l-2 3h1l4-3h1l-6 8v1l3 2-1-3h1l6 9 14 16 3-2 6-6-6 7-1 1 3-1h1l2-2h1v1l-1 2 4-5h1v1l-1 2 2-1h1l-3 4-3 2-3 4-1 1 3 6v1l-4-4 1 3v1l-4-3-5 5v1l-14 14-9 6v-1l-2 2 2 9-4-7h-1l1 4h-1l-1-3-4 4h-1l2-2 1-1h-1l-1 1h-1l1-2-3 3v-2l3-3h-1l-3 2v-1l4-4 1-2-4-10-1-4h1l2 4v-1l-2-7v-1l-5-17-1 3h-1l-6 7-1-1 3-4h-1l2-2v-1l-3 2v-1l2-1-1-1 5-4v-1h-1l2-2-2-5h1v1l-2-10 4 8v-2l2 3-1-6h1l1 5 8-9 5-4-1-1V9h1l1 1-3-4h1l3 4 2-3 2-2 1-1Zm44 7v2-2Zm14 58Zm-1-2v1-1Zm29 0 3 3-3-3Zm-29 0Zm0-1v1-1Zm4 0v1-1Zm-4 0Zm33-1v2l2 2-2-4Zm-29 0Zm26-1h1-1Zm0-1v1-1Zm3 0 2 3 2 1-4-4Zm-29-2a240 240 0 0 0 4 16l-1-7-3-9Zm25-1 3 3-3-3Zm-7-2 2 2-2-2Zm1-3 2 4 4 3v-1l-6-6Zm-1-3 6 7v-1l-6-6Zm-22 0a131 131 0 0 1 3 11v-1a37 37 0 0 0-2-10h-1Zm-1 0 1 3-1-3Zm-3 0 3 13h1l-4-13Zm3-1v1-1Zm0 0Zm19-1 1 1-1-1Zm-19 0Zm-3 0v1-1Zm3-1v1-1Zm15 0 4 3v-1l-3-2h-1Zm-14-1v1-1Zm-5 0v1h1l-1-1Zm4-3v3l1-1-1-2Zm2-1v2l2-2-2-1v1Zm10-1 3 3-3-3Zm-6 0-1 1 3 2h1l-3-3Zm5 0Zm-12 0v1h1v-1h-1Zm8 0 9 8v1-1a127 127 0 0 0-9-8Zm-4 0 1 1 2-1-1-1-2 1Zm-2-1h1-1Zm7-1v1l2 2v-1h1v-1l-3-1Zm1 0 1 1v-1h-1Zm-3 0h1v-1l-1 1Zm1-1h1v-1l-1 1Zm0-3h1-1Zm2 1 2-2-2 2Zm-11-3v1l1 5v-1l-1-5Zm10-1-1 2 2-2h-1Zm6-1h1-1Zm-23-1v1-1Zm0 0Zm0-1 1 1-1-1Zm29-3-3 4v1l5-4-2-1Zm5 0h3l-1-1-2 1Zm-1-1v1-1Zm-1 0Zm-12 5 6-5-6 5Zm12-5h1-1Zm-9 0v-1 1Zm13-1v1-1Zm-14 0-1 1h1v-1Zm5-1v1-1Zm-25 0a362 362 0 0 0 4 15v-1l-3-13-1-1Zm20-1Zm-1 0Zm6 0h2-2Zm-7 0Zm-3 0h1-1Zm-19 0 1 5h1l-2-5Zm28 0Zm-23-1v1-1Zm-5 0v1h1v-1h-1Zm0 0v1-1Zm1 0h1-1Zm29-1v1l2 1 1-1-3-1Zm-30 0v1-1Zm25 0Zm4 0v1l1-1h-1Zm-29 0Zm28 0h-1 1Zm-27-1v1-1Zm5 0 3 14 1 1 1 3 9-8 3-5-17-5Zm-5-1v1-1Zm-2 0v1h1v-1h-1Zm23 0 5 2v-1l-5-1Zm-1 0h1-1Zm-18 0 1 3h1l-1-3h-1Zm18 0Zm-15 0 13 4-10-4h-3Zm-5 0Zm-2 0Zm3-1v3h1l-1-3Zm-3 0v1-1Zm1 0h1-1Zm29 1v1l2-2h-1l-1 1Zm-30-1Zm19-1v1-1Zm-7 0v1h6l-6-1Zm-12 0v1-1Zm18 0h1-1Zm0 0Zm-12-2v1l7 1v-1l-7-1Zm-12 0h4-4Zm5-2v1-1Zm48 4a39 39 0 0 1-8 6h1l13-9-3 1-3 1v1Zm9-5-15 12-1 1 2 1-1 1 4 2-9-2v1h1v1h-1l-1-1-10 7-3 4 5 4 9 7 3 3v1c2 2 5 4 6 7 3 1 5 4 7 6h-1l-3-1 2 4h-1l-4-3-6-7 4 5 7 6h-1l-3-2 1 4-8-10a186 186 0 0 0-23-19l-2 2 2 9 2 4 2 8a222 222 0 0 1 4 14h-1l-2-5v5l-1-5-2-7v2h-1l1 3v3l-1 1-3-9v2a351 351 0 0 1-5-19l-2 1-1-1 2-3v-1h-1l-4 5h-1l5-6-4 3v-1l3-3v-3l-7 5h1l-1 1-1-1 8-5-3-11 3 10h-1l-2-5-5-20-7-3h4l-3-2 1-1 4 1-2-8h1l2 7h1l-1-5h1l2 6h1v-1h1v1l1 1v-2h1v2l8 2 16 4 5-3-3 4 4 1 3-2v1l-1 1 8-6h1l-1 1h1l4-4 3-2h1l-4 4h1a168 168 0 0 1 6-4l1 1h-1 2l-3 1Zm-22 14Zm3-1h-1 2-1Zm37-13 1 4-1-4Zm16 55Zm0-1Zm0-1v1-1Zm0-1v1-1Zm0-1v1-1Zm-1 0h1-1Zm2-1Zm-2 0Zm2-1v1-1Zm-2 0v1-1Zm-7 0Zm0-1Zm1-1v1l2 6-2-7Zm7 0 1 2v-2h-1Zm0-1v1-1Zm0 0Zm-1-2Zm0-1v1-1Zm0-1v1-1Zm-1 0h1-1Zm-8 0h1-1Zm0-1Zm0-1v1-1Zm0-1v1-1Zm0 0Zm0-1Zm9-1v1-1Zm-9 0Zm7-1Zm0 0Zm0-1Zm0-1v1-1Zm-1 0h1-1Zm0-1Zm-3 0a89 89 0 0 0 7 26l-3-13-4-13Zm3-1v1-1Zm-3 0Zm3 0Zm0-1Zm0-1v1-1Zm-1 0h1-1Zm2-2 2 9-2-9Zm-1 0h1-1Zm0-1Zm0-1v1-1Zm-7 0v1l2 11-1-5-1-7Zm7 0Zm-7 0Zm7-1v1-1Zm-7 0Zm7 0Zm-8-2v1-1Zm0-1v1-1Zm-1-2 1 2-1-2Zm0-1Zm5-1 3 12-3-12Zm1-1 1 9h1v-1l-2-8Zm-1 0v1-1Zm1 0Zm-1 0h1-1Zm1-2v1-1Zm-10-2h1v-1l-1 1Zm-4-2Zm1 0v1l4-1v-1l-4 1Zm-4-1h1-1Zm-6-1v1-1Zm10 0h1-1Zm-10 0h1-1Zm19 0h1-1Zm-8 0h2-2Zm11 1v1l12-3v-1l-12 3Zm12-3h1-1Zm-12 1v1l5-2-5 1Zm5-1Zm8-1Zm-2 0Zm1 0Zm-8 0h2-2Zm2 0Zm-13-1Zm4 0Zm-4-1v1-1Zm2-7 3 8 1-1v1a108 108 0 0 1 18-4l-2 1h4l-3 1-1 1 4-1v1l-3 1-3 1 9-2-9 4-13 4 4 12 4 16 4 17 1 4v1l-3-8v2h-1a194 194 0 0 1 2 9v1h-1l-3-7v1l1 4-4-9-1 1 1 4v1h-1v-1l-1-3v1l-1-1v1l-1-1v-7 1l-1-5a170 170 0 0 0-4-17l-2-15v-1l-8 2h-1v-1l4-1-9 2-1-1-2 1v-1l8-2 2-1-7 2v-1l5-2a123 123 0 0 1-11 1l3-1h1-1l-1-1h1l14-3-3-8 4 8-1-7v-1l1 1v-2l2 3v-1h1v-2h1Z" fill="#F2EFE7"/></svg>