<svg width="96" height="96" viewBox="0 0 96 96" fill="none" xmlns="http://www.w3.org/2000/svg">
<g id="ui-design" clip-path="url(#clip0_11_178)">
<g id="Group">
<g id="Group 62">
<path id="Vector" d="M71.7386 32.628C71.7026 32.6278 71.6664 32.6276 71.6304 32.6276C65.6241 32.6182 59.9332 30.0318 55.9854 25.5052C50.1043 18.762 41.4354 14.5136 31.7752 14.5565C14.2418 14.6342 -0.224059 29.3653 0.00262849 46.8975C0.228191 64.3323 14.4317 78.3965 31.9202 78.3965C36.8595 78.3965 41.5363 77.274 45.7102 75.2705C49.3091 73.5431 53.5974 73.9985 56.7668 76.4257C60.8661 79.5654 65.9899 81.4344 71.5504 81.4438C84.9345 81.4661 95.9218 70.565 95.9996 57.1811C96.078 43.6719 85.2292 32.7073 71.7386 32.628Z" fill="url(#paint0_linear_11_178)"/>
<path id="Vector_2" opacity="0.1" d="M22.1658 14.6173V27.1455C22.1658 27.6632 22.5856 28.083 23.1033 28.083H27.0226C27.4544 28.083 27.8301 27.7882 27.9331 27.3688L29.6943 20.1892C29.7972 19.77 30.173 19.4751 30.6048 19.4751H40.8584C41.3761 19.4751 41.7959 19.8949 41.7959 20.4126V66.2188C41.7959 66.6613 41.4863 67.0436 41.0536 67.1357L31.0844 69.2576C30.6515 69.3497 30.3421 69.732 30.3421 70.1745V73.5075C30.3421 74.0252 30.7619 74.445 31.2796 74.445H59.7951C60.3128 74.445 60.7326 74.0252 60.7326 73.5075V70.1745C60.7326 69.732 60.4231 69.3497 59.9903 69.2576L50.0211 67.1357C49.5882 67.0436 49.2788 66.6613 49.2788 66.2188V20.4126C49.2788 19.8949 49.6986 19.4751 50.2163 19.4751H60.47C60.9018 19.4751 61.2775 19.7698 61.3805 20.1892L63.1416 27.3688C63.2446 27.7881 63.6203 28.083 64.0521 28.083H67.9715C68.4891 28.083 68.909 27.6632 68.909 27.1455V14.6173C68.909 14.0996 68.4891 13.6798 67.9715 13.6798H23.1033C22.5856 13.6798 22.1658 14.0994 22.1658 14.6173Z" fill="#0A2540"/>
<path id="Vector_3" opacity="0.1" d="M81.94 21.7046H83.8128C84.5843 21.7046 85.0255 20.8246 84.5641 20.2062L80.4439 14.6862C80.0689 14.1839 79.3163 14.1839 78.9413 14.6862L74.8212 20.2062C74.3597 20.8246 74.8009 21.7046 75.5725 21.7046H77.4452V66.4201H75.5725C74.8009 66.4201 74.3597 67.3001 74.8212 67.9184L78.9413 73.4384C79.3163 73.9407 80.0689 73.9407 80.4439 73.4384L84.5641 67.9184C85.0255 67.3001 84.5843 66.4201 83.8128 66.4201H81.94V21.7046Z" fill="#0A2540"/>
<path id="Vector_4" d="M22.1794 18.5704V31.0919C22.1794 31.6094 22.5989 32.0288 23.1164 32.0288H27.0334C27.4649 32.0288 27.8406 31.734 27.9434 31.315L29.7036 24.1394C29.8064 23.7203 30.1821 23.4255 30.6136 23.4255H40.8618C41.3793 23.4255 41.7987 23.845 41.7987 24.3625V70.1443C41.7987 70.5867 41.4893 70.9688 41.0568 71.0608L31.0928 73.1817C30.6603 73.2737 30.3509 73.6559 30.3509 74.0982V77.4295C30.3509 77.947 30.7703 78.3664 31.2878 78.3664H59.788C60.3055 78.3664 60.7249 77.947 60.7249 77.4295V74.0982C60.7249 73.6559 60.4156 73.2737 59.983 73.1817L50.0191 71.0608C49.5865 70.9688 49.2771 70.5867 49.2771 70.1443V24.3625C49.2771 23.845 49.6966 23.4255 50.2141 23.4255H60.4623C60.8937 23.4255 61.2694 23.7203 61.3722 24.1394L63.1324 31.315C63.2352 31.734 63.6109 32.0288 64.0424 32.0288H67.9594C68.477 32.0288 68.8964 31.6094 68.8964 31.0919V18.5704C68.8964 18.0529 68.477 17.6335 67.9594 17.6335H23.1166C22.5991 17.6335 22.1794 18.0529 22.1794 18.5704Z" fill="white"/>
<path id="Vector_5" d="M81.9218 25.6541H83.7936C84.5648 25.6541 85.0058 24.7745 84.5446 24.1567L80.4267 18.6395C80.0519 18.1374 79.2996 18.1374 78.9248 18.6395L74.8069 24.1567C74.3457 24.7747 74.7867 25.6541 75.5579 25.6541H77.4297V70.3458H75.5579C74.7867 70.3458 74.3457 71.2254 74.8069 71.8432L78.9248 77.3604C79.2996 77.8625 80.0519 77.8625 80.4267 77.3604L84.5446 71.8432C85.0058 71.2252 84.5648 70.3458 83.7936 70.3458H81.9218V25.6541Z" fill="#635BFF"/>
<path id="Vector_6" d="M67.9606 16.696H59.1874C58.6696 16.696 58.2499 17.1158 58.2499 17.6335C58.2499 18.1512 58.6696 18.571 59.1874 18.571L67.96 18.5704L67.9606 31.0913L64.0439 31.0917L62.2834 23.916C62.0772 23.0753 61.3287 22.488 60.4628 22.488H50.2148C49.1811 22.488 48.3402 23.329 48.3402 24.3625V70.1443C48.3402 71.0235 48.9644 71.7947 49.8244 71.9779L59.788 74.0982L59.7886 77.4289L31.2888 77.4295L31.2884 74.0987L41.2523 71.9779C42.1124 71.7947 42.7366 71.0237 42.7366 70.1443V24.3625C42.7366 23.329 41.8958 22.488 40.8621 22.488H30.6139C29.7484 22.488 28.9999 23.0751 28.7933 23.9159L27.0336 31.0913L23.1169 31.0917L23.1164 18.5708H54.0265C54.5444 18.5708 54.964 18.151 54.964 17.6333C54.964 17.1156 54.5444 16.6958 54.0265 16.6958H23.1164C22.0827 16.6958 21.2419 17.5367 21.2419 18.5702V31.0917C21.2419 32.1254 22.0827 32.9663 23.1164 32.9663H27.0336C27.8991 32.9663 28.6476 32.3792 28.8543 31.5383L30.6139 24.363L40.8616 24.3625L40.8619 70.1438L30.898 72.2646C30.0379 72.4478 29.4138 73.2188 29.4138 74.098V77.4293C29.4138 78.4628 30.2545 79.3037 31.2882 79.3037H59.7886C60.8222 79.3037 61.663 78.4628 61.663 77.4293V74.0982C61.663 73.219 61.0388 72.4478 60.1788 72.2648L50.2152 70.1445L50.2148 24.3632L60.4622 24.3629L62.2227 31.5385C62.4289 32.3792 63.1776 32.9665 64.0433 32.9665H67.9606C68.9942 32.9665 69.835 32.1255 69.835 31.0919V18.5704C69.835 17.5369 68.9942 16.696 67.9606 16.696Z" fill="#0A2540"/>
<path id="Vector_7" d="M14.7149 18.5718C15.2328 18.5718 15.6524 18.152 15.6524 17.6343C15.6524 17.1166 15.2328 16.6968 14.7149 16.6968H11.248C10.7302 16.6968 10.3105 17.1166 10.3105 17.6343V78.3672C10.3105 78.8849 10.7302 79.3047 11.248 79.3047H14.7149C15.2328 79.3047 15.6524 78.8849 15.6524 78.3672C15.6524 77.8495 15.2328 77.4297 14.7149 77.4297H12.1855V69.5523H14.7149C15.2328 69.5523 15.6524 69.1325 15.6524 68.6148C15.6524 68.0971 15.2328 67.6773 14.7149 67.6773H12.1855V59.2452H14.7149C15.2328 59.2452 15.6524 58.8254 15.6524 58.3077C15.6524 57.79 15.2328 57.3702 14.7149 57.3702H12.1855V48.9383H14.7149C15.2328 48.9383 15.6524 48.5185 15.6524 48.0008C15.6524 47.4832 15.2328 47.0633 14.7149 47.0633H12.1855V38.6313H14.7149C15.2328 38.6313 15.6524 38.2115 15.6524 37.6938C15.6524 37.1761 15.2328 36.7563 14.7149 36.7563H12.1855V28.3242H14.7149C15.2328 28.3242 15.6524 27.9044 15.6524 27.3867C15.6524 26.869 15.2328 26.4492 14.7149 26.4492H12.1855V18.5718H14.7149Z" fill="#0A2540"/>
<path id="Vector_8" d="M83.7932 69.4085H82.8591V26.5918H83.7934C84.507 26.5918 85.1488 26.1956 85.4689 25.5575C85.789 24.9194 85.7226 24.1679 85.2955 23.5961L81.1778 18.0789C80.8206 17.6002 80.2731 17.3255 79.6757 17.3255C79.6755 17.3255 79.6755 17.3255 79.6753 17.3255C79.078 17.3255 78.5306 17.6 78.1731 18.0789L74.0552 23.5961C73.6285 24.1679 73.5619 24.9196 73.8818 25.5575C74.2016 26.1954 74.8436 26.5918 75.5575 26.5918H77.4291C77.947 26.5918 78.3666 26.1719 78.3666 25.6543C78.3666 25.1366 77.947 24.7168 77.4291 24.7168L75.5578 24.7175L79.675 19.2003L83.7934 24.7166H81.9216C81.4037 24.7166 80.9841 25.1364 80.9841 25.6541V70.3458C80.9841 70.8635 81.4037 71.2833 81.9216 71.2833L83.7928 71.2826L79.6757 76.7997L75.5575 71.2835H77.4291C77.947 71.2835 78.3666 70.8637 78.3666 70.346V30.8152C78.3666 30.2975 77.947 29.8777 77.4291 29.8777C76.9112 29.8777 76.4916 30.2975 76.4916 30.8152V69.4085H75.5575C74.8436 69.4085 74.2018 69.8047 73.8818 70.4427C73.5617 71.0808 73.6283 71.8323 74.0552 72.4042L78.1731 77.9214C78.5305 78.4001 79.0781 78.6746 79.6757 78.6746C80.2731 78.6746 80.8202 78.4001 81.1776 77.9214L85.2955 72.4042C85.7222 71.8323 85.7888 71.0806 85.4689 70.4427C85.149 69.8049 84.507 69.4085 83.7932 69.4085Z" fill="#0A2540"/>
<path id="Vector_9" d="M54.1394 66.1573C53.6215 66.1573 53.2019 65.7375 53.2019 65.2198V36.5687C53.2019 36.051 53.6215 35.6312 54.1394 35.6312C54.6573 35.6312 55.0769 36.051 55.0769 36.5687V65.22C55.0769 65.7375 54.6573 66.1573 54.1394 66.1573Z" fill="#0A2540"/>
<path id="Vector_10" d="M41.3964 11.8125H11.248C10.7302 11.8125 10.3105 11.3927 10.3105 10.875C10.3105 10.3573 10.7302 9.9375 11.248 9.9375H41.3964C41.9142 9.9375 42.3339 10.3573 42.3339 10.875C42.3339 11.3927 41.9142 11.8125 41.3964 11.8125Z" fill="#0A2540"/>
<path id="Vector_11" d="M68.8975 86.0625H11.248C10.7302 86.0625 10.3105 85.6427 10.3105 85.125C10.3105 84.6073 10.7302 84.1875 11.248 84.1875H68.8975C69.4154 84.1875 69.835 84.6073 69.835 85.125C69.835 85.6427 69.4154 86.0625 68.8975 86.0625Z" fill="#0A2540"/>
</g>
<g id="bubles">
<path id="buble" d="M26.3001 66.1573C25.7823 66.1573 25.3626 65.7375 25.3626 65.2198C25.3626 64.6001 24.8586 64.0959 24.2388 64.0959C23.7209 64.0959 23.3013 63.6761 23.3013 63.1584C23.3013 62.6407 23.7209 62.2209 24.2388 62.2209C24.8586 62.2209 25.3626 61.7167 25.3626 61.097C25.3626 60.5794 25.7823 60.1595 26.3001 60.1595C26.818 60.1595 27.2376 60.5794 27.2376 61.097C27.2376 61.7167 27.7416 62.2209 28.3615 62.2209C28.8794 62.2209 29.299 62.6407 29.299 63.1584C29.299 63.6761 28.8794 64.0959 28.3615 64.0959C27.7416 64.0959 27.2376 64.6001 27.2376 65.2198C27.2376 65.7375 26.818 66.1573 26.3001 66.1573Z" fill="#635BFF"/>
<path id="buble_2" d="M66.8363 44.2525C66.3184 44.2525 65.8988 43.8327 65.8988 43.315C65.8988 42.6953 65.3948 42.1911 64.7749 42.1911C64.257 42.1911 63.8374 41.7713 63.8374 41.2536C63.8374 40.7359 64.257 40.3161 64.7749 40.3161C65.3948 40.3161 65.8988 39.8119 65.8988 39.1923C65.8988 38.6746 66.3184 38.2548 66.8363 38.2548C67.3541 38.2548 67.7738 38.6746 67.7738 39.1923C67.7738 39.8119 68.2778 40.3161 68.8976 40.3161C69.4155 40.3161 69.8351 40.7359 69.8351 41.2536C69.8351 41.7713 69.4155 42.1911 68.8976 42.1911C68.2778 42.1911 67.7738 42.6953 67.7738 43.315C67.7738 43.8327 67.3541 44.2525 66.8363 44.2525Z" fill="#635BFF"/>
<path id="buble_3" d="M32.0264 53.0603C31.7866 53.0603 31.5464 52.9687 31.3636 52.7857L29.3022 50.7244C28.936 50.3582 28.936 49.7646 29.3022 49.3986L31.3636 47.3372C31.7294 46.9712 32.3234 46.9712 32.6892 47.3372L34.7506 49.3986C35.1168 49.7648 35.1168 50.3584 34.7506 50.7244L32.6892 52.7857C32.5064 52.9687 32.2664 53.0603 32.0264 53.0603ZM31.291 50.0614L32.0266 50.7969L32.7622 50.0614L32.0266 49.3258L31.291 50.0614Z" fill="#635BFF"/>
<path id="buble_4" d="M73.6893 17.0596C73.1714 17.0596 72.7518 16.6398 72.7518 16.1221C72.7518 15.5025 72.2478 14.9983 71.6279 14.9983C71.1101 14.9983 70.6904 14.5785 70.6904 14.0608C70.6904 13.5431 71.1101 13.1233 71.6279 13.1233C72.2478 13.1233 72.7518 12.6191 72.7518 11.9992C72.7518 11.4815 73.1714 11.0617 73.6893 11.0617C74.2072 11.0617 74.6268 11.4815 74.6268 11.9992C74.6268 12.6191 75.1308 13.1233 75.7507 13.1233C76.2685 13.1233 76.6882 13.5431 76.6882 14.0608C76.6882 14.5785 76.2685 14.9983 75.7507 14.9983C75.1308 14.9983 74.6268 15.5025 74.6268 16.1221C74.6268 16.6398 74.207 17.0596 73.6893 17.0596Z" fill="#635BFF"/>
</g>
</g>
</g>
<defs>
<linearGradient id="paint0_linear_11_178" x1="5.54667" y1="18.1825" x2="42.2308" y2="96.1477" gradientUnits="userSpaceOnUse">
<stop stop-color="#00D4FF" stop-opacity="0.2"/>
<stop offset="1" stop-color="#635BFF" stop-opacity="0.2"/>
</linearGradient>
<clipPath id="clip0_11_178">
<rect width="96" height="96" fill="white"/>
</clipPath>
</defs>
</svg>
