<svg width="96" height="96" viewBox="0 0 96 96" fill="none" xmlns="http://www.w3.org/2000/svg">
<g id="ux-design">
<g id="Group">
<path id="Vector" d="M94.8048 54.2659C92.5874 47.7765 87.6539 42.9859 81.7076 40.728C78.6269 39.5582 76.5802 36.63 76.535 33.3351C76.5341 33.2631 76.5328 33.1909 76.5311 33.1187C76.2485 21.0096 66.1271 11.3068 54.0166 11.5148C46.874 11.6374 40.5564 15.1438 36.597 20.4998C33.1873 25.1121 27.8801 27.9932 22.1444 27.9902C21.9761 27.9902 21.8075 27.9919 21.6382 27.9956C10.0288 28.2495 0.156889 38.2102 0.00201401 49.8214C-0.162798 62.1836 9.80883 72.2565 22.133 72.2565C31.6856 72.2565 39.8234 66.2046 42.9241 57.7258C43.7354 55.5073 46.1401 54.3182 48.4147 54.9561C48.443 54.9639 48.4715 54.972 48.5 54.9797C50.5811 55.5542 51.9609 57.5372 51.7906 59.6895C51.5625 62.5738 51.8996 65.5498 52.8778 68.4637C56.7255 79.9266 69.2255 86.2172 80.7202 82.4662C92.4785 78.6292 98.7913 65.9319 94.8048 54.2659Z" fill="url(#paint0_linear_11_28)"/>
<path id="Vector_2" opacity="0.1" d="M60.5927 30.5708H35.4073C34.3693 30.5708 33.5278 29.7293 33.5278 28.6913V8.20183C33.5278 7.16383 34.3693 6.32233 35.4073 6.32233H60.5927C61.6307 6.32233 62.4722 7.16383 62.4722 8.20183V28.6913C62.4722 29.7295 61.6307 30.5708 60.5927 30.5708Z" fill="#0A2540"/>
<path id="Vector_3" opacity="0.1" d="M57.7741 59.6493H38.2257C37.1877 59.6493 36.3462 58.8078 36.3462 57.7698V45.7358C36.3462 44.6978 37.1877 43.8563 38.2257 43.8563H57.7741C58.8121 43.8563 59.6536 44.6978 59.6536 45.7358V57.7698C59.6536 58.8078 58.8121 59.6493 57.7741 59.6493Z" fill="#0A2540"/>
<path id="Vector_4" opacity="0.1" d="M88.2142 43.8562H79.3776V43.5112C79.3776 40.922 77.2712 38.8157 74.682 38.8157H21.318C18.7288 38.8157 16.6224 40.922 16.6224 43.5112V43.8562H7.78575C6.74775 43.8562 5.90625 44.6977 5.90625 45.7357V57.7697C5.90625 58.8077 6.74775 59.6492 7.78575 59.6492H27.3341C28.3721 59.6492 29.2136 58.8077 29.2136 57.7697V45.7357C29.2136 44.6977 28.3721 43.8562 27.3341 43.8562H18.4974V43.5112C18.4974 41.9559 19.7627 40.6907 21.318 40.6907H74.682C76.2373 40.6907 77.5026 41.9559 77.5026 43.5112V43.8562H68.6659C67.6279 43.8562 66.7864 44.6977 66.7864 45.7357V57.7697C66.7864 58.8077 67.6279 59.6492 68.6659 59.6492H88.2142C89.2523 59.6492 90.0938 58.8077 90.0938 57.7697V45.7357C90.0938 44.6977 89.2523 43.8562 88.2142 43.8562Z" fill="#0A2540"/>
<path id="Vector_5" d="M60.5927 33.9459H35.4073C34.3693 33.9459 33.5278 33.1044 33.5278 32.0664V11.5768C33.5278 10.5388 34.3693 9.69733 35.4073 9.69733H60.5927C61.6307 9.69733 62.4722 10.5388 62.4722 11.5768V32.0663C62.4722 33.1046 61.6307 33.9459 60.5927 33.9459Z" fill="white"/>
<path id="Vector_6" d="M60.5927 9.69733H54.1875V33.9459H60.5927C61.6307 33.9459 62.4722 33.1044 62.4722 32.0664V11.5768C62.4722 10.5388 61.6307 9.69733 60.5927 9.69733Z" fill="white"/>
<path id="Vector_7" d="M62.4722 15.837V11.5768C62.4722 10.5388 61.6307 9.69733 60.5927 9.69733H35.4073C34.3693 9.69733 33.5278 10.5388 33.5278 11.5768V15.837H62.4722Z" fill="#635BFF"/>
<path id="Vector_8" d="M50.4107 27.87H39.4015C38.8825 27.87 38.4619 27.4493 38.4619 26.9305C38.4619 26.4117 38.8825 25.9909 39.4015 25.9909H50.4107C50.9297 25.9909 51.3503 26.4117 51.3503 26.9305C51.3501 27.4495 50.9295 27.87 50.4107 27.87Z" fill="#0A2540"/>
<path id="Vector_9" d="M45.3363 23.9693H39.4017C38.8827 23.9693 38.4622 23.5485 38.4622 23.0297C38.4622 22.5109 38.8827 22.0901 39.4017 22.0901H45.3363C45.8553 22.0901 46.2758 22.5109 46.2758 23.0297C46.2758 23.5485 45.8551 23.9693 45.3363 23.9693Z" fill="#0A2540"/>
<path id="Vector_10" d="M27.3341 63.0243H7.78575C6.74775 63.0243 5.90625 62.1828 5.90625 61.1448V49.1108C5.90625 48.0728 6.74775 47.2313 7.78575 47.2313H27.3341C28.3721 47.2313 29.2136 48.0728 29.2136 49.1108V61.1448C29.2136 62.1828 28.3721 63.0243 27.3341 63.0243Z" fill="white"/>
<path id="Vector_11" d="M27.3341 63.0243H7.78575C6.74775 63.0243 5.90625 62.1828 5.90625 61.1448V49.1108C5.90625 48.0728 6.74775 47.2313 7.78575 47.2313H27.3341C28.3721 47.2313 29.2136 48.0728 29.2136 49.1108V61.1448C29.2136 62.1828 28.3721 63.0243 27.3341 63.0243Z" fill="white"/>
<path id="Vector_12" d="M29.2136 53.371V49.1108C29.2136 48.0728 28.3721 47.2313 27.3341 47.2313H7.78575C6.74775 47.2313 5.90625 48.0728 5.90625 49.1108V53.371H29.2136Z" fill="#635BFF"/>
<path id="Vector_13" d="M23.3396 58.7893H11.7799C11.2609 58.7893 10.8403 58.3686 10.8403 57.8498C10.8403 57.331 11.2609 56.9102 11.7799 56.9102H23.3395C23.8585 56.9102 24.279 57.331 24.279 57.8498C24.279 58.3686 23.8585 58.7893 23.3396 58.7893Z" fill="#0A2540"/>
<path id="Vector_14" d="M57.7741 63.0243H38.2257C37.1877 63.0243 36.3462 62.1828 36.3462 61.1448V49.1108C36.3462 48.0728 37.1877 47.2313 38.2257 47.2313H57.7741C58.8121 47.2313 59.6536 48.0728 59.6536 49.1108V61.1448C59.6536 62.1828 58.8121 63.0243 57.7741 63.0243Z" fill="white"/>
<path id="Vector_15" d="M59.6536 53.371V49.1108C59.6536 48.0728 58.8121 47.2313 57.7741 47.2313H38.2257C37.1877 47.2313 36.3462 48.0728 36.3462 49.1108V53.371H59.6536Z" fill="#635BFF"/>
<path id="Vector_16" d="M53.7799 58.7893H42.2203C41.7013 58.7893 41.2808 58.3686 41.2808 57.8498C41.2808 57.331 41.7013 56.9102 42.2203 56.9102H53.7799C54.2989 56.9102 54.7194 57.331 54.7194 57.8498C54.7194 58.3686 54.2987 58.7893 53.7799 58.7893Z" fill="#0A2540"/>
<path id="Vector_17" d="M88.2142 63.0243H68.6659C67.6279 63.0243 66.7864 62.1828 66.7864 61.1448V49.1108C66.7864 48.0728 67.6279 47.2313 68.6659 47.2313H88.2142C89.2522 47.2313 90.0937 48.0728 90.0937 49.1108V61.1448C90.0937 62.1828 89.2522 63.0243 88.2142 63.0243Z" fill="white"/>
<path id="Vector_18" d="M90.0937 53.371V49.1108C90.0937 48.0728 89.2522 47.2313 88.2142 47.2313H68.6659C67.6279 47.2313 66.7864 48.0728 66.7864 49.1108V53.371H90.0937Z" fill="#635BFF"/>
<path id="Vector_19" d="M84.2198 58.7893H72.6603C72.1413 58.7893 71.7207 58.3686 71.7207 57.8498C71.7207 57.331 72.1413 56.9102 72.6603 56.9102H84.2198C84.7388 56.9102 85.1594 57.331 85.1594 57.8498C85.1594 58.3686 84.7386 58.7893 84.2198 58.7893Z" fill="#0A2540"/>
<path id="Vector_20" opacity="0.1" d="M74.1216 69.5725H65.2849V69.2273C65.2849 66.6381 63.1785 64.5317 60.5893 64.5317H35.4105C32.8213 64.5317 30.715 66.6381 30.715 69.2273V69.5725H21.8783C20.8403 69.5725 19.9988 70.414 19.9988 71.452V83.4859C19.9988 84.5239 20.8403 85.3654 21.8783 85.3654H41.4267C42.4647 85.3654 43.3062 84.5239 43.3062 83.4859V71.452C43.3062 70.414 42.4647 69.5725 41.4267 69.5725H32.59V69.2273C32.59 67.672 33.8552 66.4067 35.4105 66.4067H60.5893C62.1447 66.4067 63.4099 67.672 63.4099 69.2273V69.5725H54.5732C53.5352 69.5725 52.6937 70.414 52.6937 71.452V83.4859C52.6937 84.5239 53.5352 85.3654 54.5732 85.3654H74.1216C75.1596 85.3654 76.0011 84.5239 76.0011 83.4859V71.452C76.0011 70.414 75.1596 69.5725 74.1216 69.5725Z" fill="#0A2540"/>
<path id="Vector_21" d="M41.4265 88.7404H21.8783C20.8403 88.7404 19.9988 87.8989 19.9988 86.8609V74.8269C19.9988 73.7889 20.8403 72.9474 21.8783 72.9474H41.4266C42.4646 72.9474 43.3061 73.7889 43.3061 74.8269V86.8609C43.3061 87.8989 42.4647 88.7404 41.4265 88.7404Z" fill="white"/>
<path id="Vector_22" d="M43.3061 79.0871V74.8269C43.3061 73.7889 42.4646 72.9474 41.4266 72.9474H21.8783C20.8403 72.9474 19.9988 73.7889 19.9988 74.8269V79.0871H43.3061Z" fill="#635BFF"/>
<path id="Vector_23" d="M37.4322 84.5055H25.8727C25.3537 84.5055 24.9331 84.0847 24.9331 83.5659C24.9331 83.0471 25.3537 82.6263 25.8727 82.6263H37.4322C37.9512 82.6263 38.3718 83.0471 38.3718 83.5659C38.3718 84.0847 37.9512 84.5055 37.4322 84.5055Z" fill="#0A2540"/>
<path id="Vector_24" d="M74.1215 88.7404H54.5731C53.5351 88.7404 52.6936 87.8989 52.6936 86.8609V74.8269C52.6936 73.7889 53.5351 72.9474 54.5731 72.9474H74.1215C75.1595 72.9474 76.001 73.7889 76.001 74.8269V86.8609C76.001 87.8989 75.1595 88.7404 74.1215 88.7404Z" fill="white"/>
<path id="Vector_25" d="M76.001 79.0871V74.8269C76.001 73.7889 75.1595 72.9474 74.1215 72.9474H54.5734C53.5354 72.9474 52.6938 73.7889 52.6938 74.8269V79.0871H76.001Z" fill="#635BFF"/>
<path id="Vector_26" d="M70.1273 84.5055H58.5677C58.0487 84.5055 57.6282 84.0847 57.6282 83.5659C57.6282 83.0471 58.0487 82.6263 58.5677 82.6263H70.1273C70.6463 82.6263 71.0669 83.0471 71.0669 83.5659C71.0669 84.0847 70.6463 84.5055 70.1273 84.5055Z" fill="#0A2540"/>
<path id="Vector_27" d="M88.2142 46.2938H79.3768C79.3605 43.7185 77.2611 41.6282 74.682 41.6282H48.9375V34.8836H60.5927C62.1459 34.8836 63.4095 33.6199 63.4095 32.0666V21.0122C63.4095 20.4945 62.9899 20.0747 62.472 20.0747C61.9541 20.0747 61.5345 20.4945 61.5345 21.0122V32.0666C61.5345 32.586 61.1119 33.0086 60.5927 33.0086H35.4073C34.8879 33.0086 34.4653 32.586 34.4653 32.0666V16.7745H62.4722C62.9901 16.7745 63.4097 16.3547 63.4097 15.837V11.5768C63.4097 10.0236 62.1461 8.75983 60.5929 8.75983H35.4073C33.8541 8.75983 32.5903 10.0236 32.5903 11.5768V32.0663C32.5903 33.6195 33.8541 34.8833 35.4073 34.8833H47.0625V41.6278H21.318C18.7389 41.6278 16.6395 43.7181 16.6232 46.2934H7.78575C6.2325 46.2934 4.96875 47.5571 4.96875 49.1104V61.1443C4.96875 62.6976 6.2325 63.9613 7.78575 63.9613H27.3341C28.8874 63.9613 30.1511 62.6976 30.1511 61.1443V49.1104C30.1511 47.5571 28.8874 46.2934 27.3341 46.2934H18.4989C18.5153 44.7519 19.7728 43.5028 21.318 43.5028H47.0625V46.2934H38.2258C36.6726 46.2934 35.4088 47.5571 35.4088 49.1104V61.1443C35.4088 62.6976 36.6726 63.9613 38.2258 63.9613H47.0625V67.344H35.4105C32.8314 67.344 30.732 69.4343 30.7157 72.0096H21.8783C20.325 72.0096 19.0613 73.2733 19.0613 74.8266V86.8605C19.0613 88.4138 20.325 89.6775 21.8783 89.6775H41.4266C42.9799 89.6775 44.2436 88.4138 44.2436 86.8605V74.8266C44.2436 73.2731 42.9799 72.0096 41.4266 72.0096H32.5914C32.6077 70.4681 33.8653 69.219 35.4105 69.219H60.5893C62.1345 69.219 63.3921 70.4681 63.4084 72.0096H54.5732C53.0199 72.0096 51.7562 73.2733 51.7562 74.8266V86.8605C51.7562 88.4138 53.0199 89.6775 54.5732 89.6775H74.1216C75.6748 89.6775 76.9384 88.4138 76.9384 86.8605V74.8266C76.9384 73.2731 75.6748 72.0096 74.1216 72.0096H65.2841C65.2678 69.4343 63.1684 67.344 60.5893 67.344H48.9375V63.9613H57.7742C59.3274 63.9613 60.5912 62.6976 60.5912 61.1443V49.1104C60.5912 47.5571 59.3274 46.2934 57.7742 46.2934H48.9375V43.5028H74.682C76.2272 43.5028 77.4847 44.7519 77.5011 46.2934H68.6659C67.1126 46.2934 65.8491 47.5571 65.8491 49.1104V61.1443C65.8491 62.6976 67.1126 63.9613 68.6659 63.9613H88.2142C89.7675 63.9613 91.0312 62.6976 91.0312 61.1443V49.1104C91.0312 47.5575 89.7675 46.2938 88.2142 46.2938ZM34.4653 11.5768C34.4653 11.0575 34.8879 10.6348 35.4073 10.6348H60.5927C61.1121 10.6348 61.5345 11.0575 61.5345 11.5768V14.8995H34.4651V11.5768H34.4653ZM27.3341 62.0867H7.78575C7.26637 62.0867 6.84375 61.6641 6.84375 61.1447V54.3084H28.2761V61.1447C28.2761 61.6641 27.8535 62.0867 27.3341 62.0867ZM28.2761 49.1108V52.4334H6.84375V49.1108C6.84375 48.5914 7.26637 48.1688 7.78575 48.1688H27.3341C27.8535 48.1688 28.2761 48.5914 28.2761 49.1108ZM42.3686 74.827V86.8609C42.3686 87.3803 41.946 87.8029 41.4266 87.8029H21.8784C21.3591 87.8029 20.9364 87.3803 20.9364 86.8609V80.0246H38.1315C38.6492 80.0246 39.069 79.6048 39.069 79.0871C39.069 78.5695 38.6492 78.1496 38.1315 78.1496H20.9364V74.827C20.9364 74.3074 21.3591 73.885 21.8784 73.885H41.4268C41.946 73.885 42.3686 74.3076 42.3686 74.827ZM74.1216 87.8029H54.5734C54.0538 87.8029 53.6314 87.3803 53.6314 86.8609V80.0246H75.0638V86.8609C75.0636 87.3803 74.6409 87.8029 74.1216 87.8029ZM75.0636 74.827V78.1496H53.6312V74.827C53.6312 74.3074 54.0538 73.885 54.5732 73.885H74.1216C74.6409 73.885 75.0636 74.3076 75.0636 74.827ZM57.7742 62.0867H38.2258C37.7064 62.0867 37.2838 61.6641 37.2838 61.1447V54.3084H58.7162V61.1447C58.7162 61.6641 58.2936 62.0867 57.7742 62.0867ZM58.7162 49.1108V52.4334H37.2838V49.1108C37.2838 48.5914 37.7064 48.1688 38.2258 48.1688H57.7742C58.2936 48.1688 58.7162 48.5914 58.7162 49.1108ZM68.6659 48.1688H88.2142C88.7338 48.1688 89.1562 48.5914 89.1562 49.1108V52.4334H67.7239V49.1108C67.7239 48.5914 68.1465 48.1688 68.6659 48.1688ZM88.2142 62.0867H68.6659C68.1465 62.0867 67.7241 61.6641 67.7241 61.1447V54.3084H89.1562V61.1447C89.1562 61.6641 88.7336 62.0867 88.2142 62.0867Z" fill="#0A2540"/>
<path id="Vector_28" d="M54.1874 24.7326C55.6467 24.7326 56.8298 23.5496 56.8298 22.0902C56.8298 20.6308 55.6467 19.4478 54.1874 19.4478C52.728 19.4478 51.5449 20.6308 51.5449 22.0902C51.5449 23.5496 52.728 24.7326 54.1874 24.7326Z" fill="#0A2540"/>
</g>
<g id="bubles">
<path id="buble" d="M24.279 25.1534C23.7613 25.1534 23.3415 24.7335 23.3415 24.2158C23.3415 23.5932 22.8348 23.0865 22.2122 23.0865C21.6945 23.0865 21.2747 22.6667 21.2747 22.149C21.2747 21.6313 21.6945 21.2115 22.2122 21.2115C22.8348 21.2115 23.3415 20.7049 23.3415 20.082C23.3415 19.5643 23.7613 19.1445 24.279 19.1445C24.7967 19.1445 25.2165 19.5643 25.2165 20.082C25.2165 20.7049 25.7231 21.2115 26.3458 21.2115C26.8635 21.2115 27.2833 21.6313 27.2833 22.149C27.2833 22.6667 26.8635 23.0865 26.3458 23.0865C25.7231 23.0865 25.2165 23.5932 25.2165 24.2158C25.2165 24.7335 24.7967 25.1534 24.279 25.1534Z" fill="#635BFF"/>
<path id="buble_2" d="M83.6246 74.9068C83.1067 74.9068 82.6871 74.487 82.6871 73.9693C82.6871 73.3466 82.1805 72.84 81.5576 72.84C81.0397 72.84 80.6201 72.4202 80.6201 71.9025C80.6201 71.3848 81.0397 70.965 81.5576 70.965C82.1805 70.965 82.6871 70.4584 82.6871 69.8355C82.6871 69.3178 83.1067 68.898 83.6246 68.898C84.1425 68.898 84.5621 69.3178 84.5621 69.8355C84.5621 70.4584 85.0687 70.965 85.6914 70.965C86.2093 70.965 86.6289 71.3848 86.6289 71.9025C86.6289 72.4202 86.2093 72.84 85.6914 72.84C85.0687 72.84 84.5621 73.3466 84.5621 73.9693C84.5621 74.487 84.1425 74.9068 83.6246 74.9068Z" fill="#635BFF"/>
<path id="buble_3" d="M69.6537 38.0148C69.4139 38.0148 69.1737 37.9233 68.9909 37.7403L66.9241 35.6735C66.5579 35.3073 66.5579 34.7137 66.9241 34.3477L68.9909 32.2808C69.3567 31.9148 69.9507 31.9148 70.3165 32.2808L72.3833 34.3477C72.7495 34.7138 72.7495 35.3075 72.3833 35.6735L70.3165 37.7403C70.1337 37.9231 69.8937 38.0148 69.6537 38.0148ZM68.9127 35.0103L69.6537 35.7513L70.3947 35.0103L69.6537 34.2693L68.9127 35.0103Z" fill="#635BFF"/>
<path id="buble_4" d="M12.9073 82.0917C12.6673 82.0917 12.4275 82.0002 12.2443 81.8172L10.1773 79.7504C10.0015 79.5745 9.90283 79.3362 9.90283 79.0874C9.90283 78.8386 10.0016 78.6003 10.1773 78.4244L12.2443 76.3574C12.4202 76.1815 12.6585 76.0829 12.9073 76.0829C13.156 76.0829 13.3945 76.1817 13.5703 76.3574L15.6371 78.4244C16.0033 78.7906 16.0033 79.3842 15.6371 79.7502L13.5703 81.817C13.3871 82 13.1473 82.0917 12.9073 82.0917ZM12.1663 79.0872L12.9075 79.8284L13.6487 79.0872L12.9075 78.346L12.1663 79.0872Z" fill="#635BFF"/>
</g>
</g>
<defs>
<linearGradient id="paint0_linear_11_28" x1="5.54666" y1="15.4171" x2="46.9004" y2="97.0212" gradientUnits="userSpaceOnUse">
<stop stop-color="#00D4FF" stop-opacity="0.2"/>
<stop offset="1" stop-color="#635BFF" stop-opacity="0.2"/>
</linearGradient>
</defs>
</svg>
